<?xml version="1.0" encoding="UTF-8"?>
<svg id="Layer_1" xmlns="http://www.w3.org/2000/svg" version="1.1" viewBox="0 0 803.9 932.3">
  <!-- Generator: Adobe Illustrator 30.0.0, SVG Export Plug-In . SVG Version: 2.1.1 Build 123)  -->
  <defs>
    <style>
      .st0 {
        fill: none;
      }

      .st1 {
        fill: #8093bf;
      }

      .st2 {
        opacity: .3;
      }
    </style>
  </defs>
  <g class="st2">
    <path class="st0" d="M349.4,139.8c.2-.4.5-.8.8-1.2h0l-33.6-38.4c-2.5,1.5-5.5,2-8.5,1.1-2.9-.9-5.1-3.1-6.2-5.7l-48.2,11.5c0,.8,0,1.6-.3,2.4l96.1,30.5h0Z"/>
    <path class="st0" d="M39.4,175l55.1,22.2c1.5-2.1,3.8-3.6,6.5-4.1v-41.2c-2.7-.4-5-1.9-6.5-4.1l-55.1,22.2c.2.8.3,1.6.3,2.5s-.1,1.7-.3,2.5h0Z"/>
    <path class="st0" d="M128.4,42.1c-3.1,1-6.3.4-8.8-1.3l-32.1,37.5c.8,1,1.5,2.1,1.9,3.4,1.7,5.4-1.2,11.1-6.6,12.9-5.4,1.7-11.1-1.2-12.9-6.6-.4-1.2-.5-2.5-.5-3.7l-48.9-11.1c-1,3.4-3.7,6.1-7.2,7v21.2c4.4,1.1,7.7,5.1,7.7,9.9s-2,6.9-5,8.7l12.8,42.4c.2,0,.5,0,.7,0,3.6,0,6.7,1.8,8.5,4.6l55-22.1c-.3-.9-.5-1.9-.5-2.9,0-5.6,4.6-10.2,10.2-10.2s10.2,4.6,10.2,10.2-3.7,9.2-8.5,10.1v41.2c4.8.8,8.5,5,8.5,10.1s-4.6,10.2-10.2,10.2-10.2-4.6-10.2-10.2.2-2,.5-2.9l-55-22.1c-1.8,2.8-5,4.6-8.5,4.6s-.2,0-.3,0l-12.9,40.9c2.8,1.8,4.6,5,4.6,8.5s-3.3,8.7-7.7,9.9v22.9c4.4,1.1,7.7,5.1,7.7,9.9s-4.6,10.2-10.2,10.2-10.2-4.6-10.2-10.2,4.1-9.7,9.4-10.1v-22.3c-5.2-.4-9.4-4.8-9.4-10.1s4.6-10.2,10.2-10.2,1.7.1,2.4.3l12.6-40.2c-3.8-1.5-6.6-5.2-6.6-9.5s2.6-7.8,6.2-9.4l-12.6-41.9c-.7.1-1.4.2-2.1.2-5.6,0-10.2-4.6-10.2-10.2s4.1-9.7,9.4-10.1v-20.6c-2.7-.2-5-1.4-6.7-3.3-1.2-1.1-2.2-2.5-2.7-4.2-1.7-5.4,1.2-11.1,6.6-12.9,3.9-1.3,8.1,0,10.7,2.9.6.6,1.2,1.3,1.6,2l95.7-31.8c-.3-4.6,2.5-8.9,7-10.4,5.4-1.7,11.1,1.2,12.9,6.6,1.7,5.4-1.2,11.1-6.6,12.9h0ZM361.8,299.6c-1.7,5.4-7.5,8.3-12.9,6.6-5.1-1.6-7.9-6.9-6.7-12l-21.2-6.9c-2,4.9-7.4,7.4-12.5,5.8-5.4-1.7-8.3-7.5-6.6-12.9.3-.8.6-1.5,1.1-2.2l-34.3-24.4c-2.6,3.2-6.9,4.6-11.1,3.3-4-1.3-6.7-4.9-7-8.8l-43.8-.9c0,.7-.2,1.4-.4,2.1-1.7,5.4-7.5,8.3-12.9,6.6-5.1-1.6-7.9-6.9-6.7-12l-19.6-6.4c-.2.6-.5,1.1-.9,1.6-1.8,3.1-5,5.2-8.9,5.2-5.6,0-10.2-4.6-10.2-10.2s.6-3.9,1.6-5.5c1.4-2.7,4-4.5,6.9-5.1l-.7-100.5c-4.4-1.1-7.7-5.1-7.7-9.9s4.6-10.2,10.2-10.2,10.2,4.6,10.2,10.2-1.6,6.1-3.9,8l25.7,42.1c1.2-.5,2.4-.7,3.8-.7,5.6,0,10.2,4.6,10.2,10.2s-4.6,10.2-10.2,10.2-2.5-.3-3.7-.7l-25.7,43.1c2.7,2,4.3,5.3,4.1,8.8l20.1,6.5c2.4-3.8,7.2-5.7,11.8-4.2,3.5,1.1,6,4,6.8,7.4l44.3.9c0-.2,0-.4.1-.7,1.1-3.4,3.8-5.8,7-6.7l-4.1-59.1c-1,0-2-.1-2.9-.4-5.4-1.7-8.3-7.5-6.6-12.9,1.7-5.4,7.5-8.3,12.9-6.6,4.8,1.6,7.6,6.4,6.9,11.2l39.2,12.7c2.3-4.3,7.4-6.6,12.2-5,5.4,1.7,8.3,7.5,6.6,12.9-1.7,5.4-7.5,8.3-12.9,6.6-1-.3-1.8-.8-2.6-1.4l-38,45.4c2.1,2.6,2.9,6.1,1.8,9.5,0,.1,0,.2-.1.3l34.9,24.9c2.6-2.1,6.1-2.9,9.6-1.8,4.5,1.5,7.3,5.8,7,10.3l21.8,7.1c2.4-3.8,7.2-5.7,11.8-4.2,5.4,1.7,8.3,7.5,6.6,12.9h0ZM713.3,575c-5.6.9-10.8-2.9-11.7-8.5-.5-3.2.6-6.3,2.6-8.5l-32-37.6c-1.1.7-2.3,1.1-3.6,1.3-5.6.9-10.8-2.9-11.7-8.5-.9-5.6,2.9-10.8,8.5-11.7,1.3-.2,2.5-.1,3.8.1l18.6-46.5c-3.1-1.6-5.3-4.6-5.6-8.1l-20.9-3.3c-1.8,4.2-6.2,6.8-10.9,6-3.7-.6-6.5-3.1-7.8-6.3l-43.9,6c0,.2,0,.5,0,.7-.6,3.5-2.9,6.3-5.9,7.7l13.2,57.8c1-.1,2-.2,3,0,5.6.9,9.4,6.1,8.5,11.7-.9,5.6-6.1,9.4-11.7,8.5-5-.8-8.5-5.1-8.6-10l-40.7-6.5c-1.6,4.6-6.3,7.6-11.3,6.8-5.6-.9-9.4-6.1-8.5-11.7.9-5.6,6.1-9.4,11.7-8.5,1,.2,1.9.5,2.8.9l30.4-50.8c-2.5-2.2-3.8-5.6-3.2-9.1,0-.1,0-.2,0-.3l-38.4-19.1c-2.2,2.5-5.6,3.8-9.2,3.2-4.7-.7-8.1-4.6-8.5-9.1l-22.6-3.6c-1.8,4.2-6.2,6.8-10.9,6-5.6-.9-9.4-6.1-8.5-11.7.9-5.6,6.1-9.4,11.7-8.5,5.3.8,8.9,5.6,8.5,10.8l22,3.5c1.2-5.1,6.2-8.5,11.5-7.7,5.6.9,9.4,6.1,8.5,11.7-.1.8-.4,1.6-.7,2.4l37.7,18.8c2.1-3.5,6.1-5.7,10.4-5,4.2.7,7.3,3.8,8.3,7.6l43.4-5.9c0-.7,0-1.4.1-2.1.9-5.6,6.1-9.4,11.7-8.5,5.3.8,8.9,5.6,8.5,10.8l20.4,3.2c.4-1.5,1.1-2.9,2-4.1,0,0,0-.1.1-.2.1-.1.2-.3.4-.4,1.5-1.8,3.7-3.2,6.2-3.6,5.6-.9,10.8,2.9,11.7,8.5.5,3.2-.5,6.2-2.5,8.4-1.1,1.4-2.5,2.5-4.2,3.2l16.5,99.3c4.6.4,8.4,3.8,9.2,8.5.9,5.6-2.9,10.8-8.5,11.7h0ZM661.7,288l23.2-54.5c-.9-.5-1.7-1-2.4-1.7-4-4-4-10.5,0-14.4,4-4,10.5-4,14.5,0,3.6,3.6,3.9,9.1,1.1,13.1l29.2,29.2c4-2.8,9.5-2.5,13.1,1.1,4,4,4,10.5,0,14.5-4,4-10.5,4-14.5,0-.7-.7-1.3-1.5-1.7-2.4l-54.5,23.2c.7,3.2-.2,6.8-2.8,9.3s-.2.1-.2.2l19.8,38c3.3-.7,6.8.2,9.3,2.8,3.4,3.4,3.9,8.5,1.5,12.4l16.2,16.2c3.9-2.3,9-1.8,12.4,1.5s4,10.5,0,14.5c-4,4-10.5,4-14.5,0-3.8-3.8-3.9-9.8-.5-13.8l-15.8-15.8c-4,3.4-10,3.2-13.8-.5-4-4-4-10.5,0-14.5.6-.6,1.3-1.1,2-1.5l-19.5-37.4c-3.8,1.7-8.3,1-11.4-2.1-3-3-3.7-7.4-2.3-11l-38.6-20.7c-.4.6-.8,1.1-1.3,1.6-4,4-10.5,4-14.5,0-3.8-3.8-3.9-9.8-.5-13.8l-14.6-14.6c-2,1.7-4.6,2.5-7.1,2.4-1.7,0-3.3-.3-4.9-1.1-5-2.6-7-8.7-4.5-13.8,1.9-3.7,5.7-5.7,9.6-5.6.9,0,1.7,0,2.6.3l45.1-90.2c-3.5-3-4.6-8.1-2.4-12.3,2.6-5,8.7-7,13.8-4.5s7,8.7,4.5,13.7c-1.5,2.9-4.2,4.8-7.1,5.4l3.8,49.2c1.3.1,2.5.4,3.7,1.1,5,2.6,7,8.7,4.5,13.8s-8.7,7-13.8,4.5c-1.2-.6-2.1-1.4-3-2.3l-42.4,26.7c1.7,3.1,1.7,6.9-.2,10.1l15,15c3.9-2.3,9-1.8,12.4,1.5s3.5,6.3,2.7,9.7l39.1,21c.2-.2.3-.4.4-.5,2.5-2.5,6-3.4,9.3-2.8h0ZM415.1,204.2c2.4-4.8,8.1-6.8,13-4.8l10.1-19.9c-4.5-2.8-6.2-8.5-3.8-13.3,2.6-5,8.7-7,13.8-4.5.8.4,1.4.9,2,1.4l29.5-30.1c-2.8-3.1-3.5-7.6-1.5-11.5,1.9-3.8,5.8-5.8,9.8-5.6l7.8-43.1c-.7-.2-1.3-.4-2-.8-5-2.6-7-8.7-4.5-13.8,2.4-4.8,8.1-6.8,13-4.8l9.4-18.4c-4.5-2.8-6.2-8.5-3.8-13.3.1-.3.4-.5.5-.8,0,0,.1-.2.2-.3.2-.4.5-.7.8-1,.3-.3.6-.6.9-.9,0,0,.2-.2.3-.2,2.2-1.9,5.1-2.9,8.2-2.4,5,.8,8.5,5,8.6,9.9l99.9,15.1c1.8-4.2,6.2-6.8,11-6.1,5.6.9,9.4,6.1,8.5,11.7-.9,5.6-6.1,9.4-11.7,8.5-3.2-.5-5.8-2.5-7.3-5.1l-45.6,18.8c.3,1.2.3,2.5.1,3.8-.9,5.6-6.1,9.4-11.7,8.5s-9.4-6.1-8.5-11.7c.2-1.3.7-2.5,1.3-3.5l-39-32.5c-2.5,2.5-6,3.6-9.5,2.8l-9.6,18.9c3.4,3,4.5,8,2.4,12.3-1.7,3.3-4.9,5.3-8.4,5.5l-7.9,43.6c.2,0,.4.1.6.2,3.2,1.6,5.1,4.7,5.5,8l59,5.3c.2-1,.4-1.9.9-2.8,2.6-5,8.7-7,13.8-4.5s7,8.7,4.5,13.8c-2.3,4.5-7.5,6.6-12.2,5.1l-18.7,36.7c3.9,2.9,5.3,8.3,3,12.8-2.6,5-8.7,7-13.8,4.5s-7-8.7-4.5-13.8c.5-.9,1.1-1.7,1.8-2.4l-38.9-44.7c-2.9,1.6-6.5,1.9-9.7.2,0,0-.2-.1-.2-.2l-30,30.6c1.6,2.9,1.9,6.5.2,9.7-2.2,4.2-6.9,6.3-11.3,5.3l-10.4,20.4c3.4,3,4.5,8,2.4,12.3-2.6,5-8.7,7-13.8,4.5s-7-8.7-4.5-13.8h0ZM538.5,730.1c-2.6,5-8.7,7-13.8,4.5-5-2.6-7-8.7-4.5-13.8.5-.9,1.1-1.7,1.8-2.4l-38.9-44.7c-2.9,1.6-6.5,1.8-9.7.2,0,0-.2-.1-.2-.2l-30,30.6c1.6,2.9,1.9,6.5.2,9.7-2.2,4.2-6.9,6.3-11.3,5.3l-10.4,20.4c3.4,3,4.5,8,2.4,12.3-2.6,5-8.7,7-13.8,4.5-5-2.6-7-8.7-4.5-13.8,2.4-4.8,8.1-6.8,13-4.8l10.1-19.9c-4.5-2.8-6.2-8.5-3.8-13.3,2.6-5,8.7-7,13.8-4.5.8.4,1.4.9,2,1.4l29.5-30.1c-2.8-3-3.5-7.6-1.5-11.5,1.9-3.8,5.8-5.8,9.8-5.6l7.8-43.1c-.7-.2-1.3-.4-2-.8-5-2.6-7-8.7-4.5-13.8,2.4-4.8,8.1-6.8,13-4.8l9.4-18.4c-4.5-2.8-6.2-8.5-3.8-13.3.1-.3.4-.5.5-.8,0,0,.1-.2.2-.3.2-.4.5-.7.8-1,.3-.3.6-.6.9-.9,0,0,.2-.2.3-.2,2.2-1.9,5.1-2.9,8.2-2.4,5,.8,8.5,5,8.6,9.9l99.9,15.1c1.8-4.2,6.2-6.8,11-6.1,5.6.9,9.4,6.1,8.5,11.7-.9,5.6-6.1,9.4-11.7,8.5-3.2-.5-5.8-2.5-7.3-5.1l-45.6,18.8c.3,1.2.3,2.5.1,3.8-.9,5.6-6.1,9.4-11.7,8.5-5.6-.9-9.4-6.1-8.5-11.7.2-1.3.7-2.5,1.3-3.5l-39-32.5c-2.5,2.5-6,3.6-9.5,2.8l-9.6,18.9c3.4,3,4.5,8,2.4,12.3-1.7,3.3-4.9,5.3-8.4,5.5l-7.9,43.6c.2,0,.4.1.6.2,3.2,1.6,5.1,4.7,5.5,8l59,5.2c.2-1,.4-1.9.9-2.8,2.6-5,8.7-7,13.8-4.5,5,2.6,7,8.7,4.5,13.8-2.3,4.5-7.5,6.5-12.2,5.1l-18.7,36.7c3.9,2.9,5.3,8.3,3,12.8h0ZM731,813.7c-4,4-10.5,4-14.5,0s-1.3-1.5-1.7-2.4l-54.5,23.2c.7,3.2-.2,6.8-2.8,9.3,0,0-.2.1-.2.2l19.8,38c3.3-.7,6.8.2,9.3,2.8,3.4,3.4,3.9,8.5,1.5,12.4l16.2,16.2c3.9-2.3,9-1.8,12.4,1.5s4,10.5,0,14.5-10.5,4-14.5,0c-3.8-3.8-3.9-9.8-.5-13.8l-15.8-15.8c-4,3.4-10,3.2-13.8-.5s-4-10.5,0-14.5,1.3-1.1,2-1.5l-19.5-37.4c-3.8,1.7-8.3,1-11.4-2.1s-3.7-7.3-2.3-11l-38.6-20.7c-.4.6-.8,1.1-1.3,1.6-4,4-10.5,4-14.5,0s-3.9-9.8-.5-13.8l-14.6-14.6c-2,1.7-4.6,2.5-7.1,2.4-1.7,0-3.3-.3-4.9-1.1-5-2.6-7-8.7-4.5-13.8,1.9-3.7,5.7-5.7,9.6-5.5.9,0,1.7,0,2.6.3l45.1-90.2c-3.5-3-4.6-8.1-2.4-12.3,2.6-5,8.7-7,13.8-4.5,5,2.6,7,8.7,4.5,13.8-1.5,2.9-4.2,4.8-7.1,5.3l3.8,49.2c1.3.1,2.5.5,3.7,1.1,5,2.6,7,8.7,4.5,13.8-2.6,5-8.7,7-13.8,4.5-1.2-.6-2.1-1.4-3-2.3l-42.4,26.7c1.7,3.1,1.7,7-.2,10l15,15c3.9-2.3,9-1.8,12.4,1.5s3.5,6.3,2.7,9.7l39.1,21c.2-.2.3-.4.4-.5,2.5-2.5,6-3.4,9.3-2.8l23.2-54.5c-.9-.5-1.7-1-2.4-1.7-4-4-4-10.5,0-14.5s10.5-4,14.5,0,3.9,9.1,1.1,13.1l29.2,29.2c4-2.8,9.5-2.5,13.1,1.1s4,10.5,0,14.5h0Z"/>
    <path class="st0" d="M257.3,177.6l4.1,59.3c.8,0,1.6.2,2.5.4.8.3,1.6.6,2.3,1.1l38.1-45.6c-1.5-2.1-2.2-4.8-1.8-7.5l-39.2-12.7c-1.3,2.4-3.4,4.1-5.9,5h0Z"/>
    <path class="st0" d="M626.5,44.8l-99.6-15.1c-.2.5-.3.9-.6,1.3l39.2,32.7c2.2-1.9,5.1-2.8,8.2-2.4,3,.5,5.5,2.3,7,4.7l45.8-18.9c-.1-.8-.2-1.6-.1-2.4h0Z"/>
    <path class="st0" d="M614.3,743c-1.1-2.7-1.1-5.8.3-8.5,1.4-2.7,3.9-4.5,6.6-5.2l-3.8-49.4c-.8-.1-1.6-.3-2.3-.6l-44.9,89.7c.5.3.9.7,1.4,1.1l42.7-26.9h0Z"/>
    <path class="st0" d="M495,133l39.1,44.8c2.3-1.2,5.1-1.4,7.7-.6l18.7-36.7c-2.2-1.6-3.6-4-4-6.6l-59.2-5.3c-.2.8-.4,1.6-.8,2.4-.4.8-.9,1.4-1.4,2.1h0Z"/>
    <path class="st0" d="M31.6,3.7l11.5-3.7h-14.8c1.4.9,2.6,2.2,3.4,3.7h0Z"/>
    <path class="st0" d="M758.8,728.2c-2.2-2.2-3.1-5.1-2.9-7.9l-48.2-11.7c-.3.7-.8,1.4-1.3,2l71.3,70.3c.5-.4,1-.7,1.5-1l-12.4-48.8c-2.9.2-5.8-.7-8-2.9h0Z"/>
    <path class="st0" d="M668.4,292.8l54.7-23.3c-.4-2.6.2-5.3,1.8-7.5l-29.2-29.1c-2.2,1.6-4.9,2.2-7.5,1.8l-23.3,54.7c.7.4,1.4.9,2,1.5.6.6,1.1,1.3,1.5,2h0Z"/>
    <path class="st0" d="M715.5,800.5l-29.2-29.2c-2.2,1.6-4.9,2.2-7.5,1.8l-23.3,54.7c.7.4,1.4.9,2,1.5.6.6,1.1,1.3,1.5,2l54.7-23.3c-.4-2.6.2-5.3,1.8-7.5Z"/>
    <path class="st0" d="M623.7,204.5c-1.1-2.7-1.1-5.8.3-8.6,1.4-2.7,3.9-4.5,6.6-5.2l-3.8-49.4c-.8-.1-1.6-.3-2.3-.6l-44.9,89.7c.5.3.9.7,1.4,1.1l42.7-26.9h0Z"/>
    <path class="st0" d="M586.9,458.6c-.8-.1-1.6-.4-2.4-.7l-30.5,51c1.8,1.9,3,4.4,3,7.1l40.7,6.5c.9-2.6,2.7-4.6,5-5.8l-13.3-57.9c-.8,0-1.7,0-2.5,0h0Z"/>
    <path class="st0" d="M532.4,715.7l18.7-36.7c-2.2-1.6-3.6-4-4-6.6l-59.2-5.3c-.2.8-.4,1.6-.8,2.4-.4.8-.9,1.4-1.4,2.1l39.1,44.8c2.3-1.2,5.1-1.5,7.7-.6h0Z"/>
    <path class="st0" d="M617.2,583.4l-99.6-15.1c-.2.5-.3.9-.6,1.3l39.2,32.7c2.2-1.9,5.1-2.8,8.2-2.4,3,.5,5.5,2.3,7,4.7l45.8-18.9c-.1-.8-.2-1.6-.1-2.4h0Z"/>
    <path class="st0" d="M768.1,189.6c-2.2-2.2-3.1-5.1-2.9-7.9l-48.2-11.7c-.3.7-.8,1.4-1.3,2l71.3,70.3c.5-.4,1-.7,1.5-1l-12.4-48.8c-2.9.2-5.8-.7-8-2.9h0Z"/>
    <path class="st0" d="M182.8,172.5c0-3.1,1.4-5.8,3.5-7.7l-25.8-42.3c-.8.3-1.5.4-2.4.5l.7,100.1c.6,0,1.2.2,1.8.4l25.8-43.3c-2.2-1.9-3.6-4.6-3.6-7.8h0Z"/>
    <path class="st0" d="M692.9,456.2c-.6,0-1.2,0-1.8,0l-18.7,46.8c2.5,1.5,4.3,4,4.8,7.1.5,3-.5,5.9-2.3,8.1l32.1,37.8c.7-.4,1.5-.7,2.2-.9l-16.4-98.8h0Z"/>
    <path class="st0" d="M76.4,75.1c2.9-.9,5.9-.5,8.4,1l32.3-37.6c-.5-.6-.9-1.3-1.2-2.1l-95.2,31.7c.1.6.2,1.1.2,1.7l49.2,11.2c1.1-2.7,3.3-4.9,6.2-5.8Z"/>
    <path class="st1" d="M718.1,384.1l-7.2-7.2c-3.4,4-3.2,10,.5,13.8,4,4,10.5,4,14.5,0s4-10.5,0-14.5c-3.4-3.4-8.5-3.9-12.4-1.5l7,7-2.4,2.4h0Z"/>
    <path class="st1" d="M697.3,358.6c2.3-3.9,1.8-9-1.5-12.4-2.5-2.5-6-3.4-9.3-2.8l4.7,9,6.2,6.2h0Z"/>
    <path class="st1" d="M683.3,344.7c-.7.4-1.4.9-2,1.5-4,4-4,10.5,0,14.5,3.8,3.8,9.8,3.9,13.8.5l-6.8-6.8-5.1-9.7h0Z"/>
    <path class="st1" d="M724.2,272.7c.5.9,1,1.7,1.7,2.4,4,4,10.5,4,14.5,0s4-10.5,0-14.5c-3.6-3.6-9.1-3.9-13.1-1.1l8.3,8.3-11.3,4.8h0Z"/>
    <path class="st1" d="M723.1,269.5l6.5-2.8-4.7-4.7c-1.6,2.2-2.2,4.9-1.8,7.5Z"/>
    <path class="st1" d="M695.7,232.8l-4.7-4.7-2.8,6.5c2.6.4,5.3-.2,7.5-1.8Z"/>
    <path class="st1" d="M698.1,230.4c2.8-4,2.5-9.6-1.1-13.1-4-4-10.5-4-14.5,0s-4,10.5,0,14.4c.7.7,1.5,1.3,2.4,1.7l4.8-11.4,8.3,8.3h0Z"/>
    <path class="st1" d="M712.5,168.9l3.2,3.1c.5-.6,1-1.3,1.3-2l-4.5-1.1h0Z"/>
    <path class="st1" d="M718,166.7c.4-3-.6-6.1-2.9-8.4-4-4-10.5-4-14.5,0s-4,10.5,0,14.4,8.5,3.9,12.5,1.5l-11.7-11.5,16.6,4h0Z"/>
    <path class="st1" d="M666.7,305.4c0,0,.2-.1.2-.2,2.5-2.5,3.4-6,2.8-9.3l-6.5,2.8,3.5,6.7h0Z"/>
    <path class="st1" d="M658.8,294.9l3-6.9c-3.2-.7-6.8.2-9.3,2.8-.2.2-.3.4-.4.5l6.8,3.6h0Z"/>
    <path class="st1" d="M668.4,292.8c-.4-.7-.9-1.4-1.5-2-.6-.6-1.3-1.1-2-1.5l-2.6,6.1,6.1-2.6h0Z"/>
    <path class="st1" d="M655.8,301.8l1.6-3.7-7.2-3.9c-1.5,3.7-.7,8,2.3,11,3.1,3.1,7.6,3.8,11.4,2.1l-3.8-7.3-4.2,1.8h0Z"/>
    <path class="st1" d="M779.4,191.7c1.1-.5,2.2-1.2,3.1-2.1,4-4,4-10.5,0-14.4-4-4-10.5-4-14.5,0-1,.9-1.7,2-2.2,3.2l10.8,2.6,2.7,10.7h0Z"/>
    <path class="st1" d="M768.1,189.6c2.2,2.2,5.2,3.1,8,2.9l-2.2-8.7-8.8-2.1c-.2,2.9.8,5.8,2.9,7.9h0Z"/>
    <path class="st1" d="M595.3,261.3c-3.4,4-3.2,10,.5,13.8,4,4,10.5,4,14.5,0s1-1,1.3-1.6l-9-4.8-7.3-7.3h0Z"/>
    <path class="st1" d="M612.9,270.3c.8-3.4,0-7-2.7-9.7-3.4-3.4-8.5-3.9-12.4-1.5l6.8,6.8,8.3,4.4h0Z"/>
    <path class="st1" d="M582.5,243.6s0,0,0,0l.5.5c1.8-3.1,1.9-6.9.2-10.1l-.6.4c1.4,2.8,1.5,6.2,0,9.1h0Z"/>
    <path class="st1" d="M573.6,249.1c2.5.1,5.1-.7,7.1-2.4l-.4-.4c-1.8,1.7-4.2,2.7-6.7,2.8h0Z"/>
    <path class="st1" d="M576.3,229.2v-.2c-.8-.2-1.6-.3-2.5-.3.8,0,1.7.2,2.5.4h0Z"/>
    <path class="st1" d="M580.5,231.7l.5-.3c-.4-.4-.9-.8-1.4-1.1l-.2.4c.4.3.8.6,1.1.9h0Z"/>
    <path class="st1" d="M658.8,294.9l-6.8-3.6-39.1-21-8.3-4.4-6.8-6.8-15-15-.5-.5c-.5,1.1-1.3,1.9-2.1,2.7l.4.4,14.6,14.6,7.3,7.3,9,4.8,38.6,20.7,7.2,3.9,1.3-3.1h0Z"/>
    <polygon class="st1" points="660 300 663.8 307.3 683.3 344.7 688.4 354.4 695.1 361.2 710.9 377 718.1 384.1 720.5 381.7 713.5 374.7 697.3 358.6 691.2 352.4 686.5 343.4 666.7 305.4 663.2 298.7 660 300"/>
    <path class="st1" d="M787,242.3l-71.3-70.3-3.2-3.1,4.5,1.1,48.2,11.7,8.8,2.1,2.2,8.7,12.4,48.8s0,0,0,0c1-.5,2.1-.8,3.2-1l-12.3-48.6-2.7-10.7-10.8-2.6-48-11.6-16.6-4,11.7,11.5,71.6,70.6c.6-.9,1.4-1.8,2.3-2.5h0Z"/>
    <path class="st1" d="M657.4,298.1l-1.6,3.7,4.2-1.8,3.1-1.3,6.5-2.8,54.5-23.2,11.3-4.8-8.3-8.3-29.2-29.1-8.3-8.3-4.8,11.4-23.2,54.5-3,6.9-1.3,3.1h0ZM688.2,234.6l2.8-6.5,4.7,4.7,29.2,29.1,4.7,4.7-6.5,2.8-54.7,23.3-6.1,2.6,2.6-6.1,23.3-54.7h0Z"/>
    <path class="st1" d="M419.6,218c5,2.6,11.2.6,13.8-4.5,2.2-4.2,1-9.2-2.4-12.3l-4.5,8.8-3-1.6,4.6-9c-4.9-2-10.5,0-13,4.8-2.6,5-.6,11.2,4.5,13.8h0Z"/>
    <path class="st1" d="M450.3,163.2c-.6-.5-1.3-1-2-1.4-5-2.6-11.2-.6-13.8,4.5-2.4,4.8-.7,10.5,3.8,13.3l4.3-8.5,7.7-7.9Z"/>
    <path class="st1" d="M441.4,180.9c4.4,1,9.1-1.1,11.3-5.3,1.6-3.2,1.4-6.8-.2-9.7l-7.1,7.2-4,7.8h0Z"/>
    <path class="st1" d="M531.3,179.9c-.7.7-1.3,1.5-1.8,2.4-2.6,5-.6,11.2,4.5,13.8,5,2.6,11.2.6,13.8-4.5,2.3-4.5.9-9.9-3-12.8l-5.3,10.4-8.1-9.3h0Z"/>
    <path class="st1" d="M534.1,177.8l4.6,5.3,3-5.9c-2.6-.8-5.3-.5-7.7.6h0Z"/>
    <path class="st1" d="M563.5,142c4.7,1.5,9.8-.6,12.2-5.1,2.6-5,.6-11.2-4.5-13.8-5-2.6-11.2-.6-13.8,4.5-.5.9-.7,1.9-.9,2.8l12.3,1.1-5.3,10.4h0Z"/>
    <path class="st1" d="M560.5,140.4l3-5.9-7-.6c.4,2.6,1.8,4.9,4,6.6h0Z"/>
    <path class="st1" d="M580.3,246.4c.8-.8,1.5-1.7,2.1-2.7,0,0,0,0,0,0,1.5-3,1.4-6.4,0-9.1l-12.8,8.1,6.7-13.3c-.8-.2-1.7-.4-2.5-.4-3.9-.2-7.7,1.9-9.6,5.6-2.6,5-.6,11.2,4.5,13.8,1.6.8,3.2,1.1,4.9,1.1,2.5,0,4.9-1,6.7-2.8h0Z"/>
    <path class="st1" d="M578.2,233.1l2.3-1.4c-.3-.3-.7-.7-1.1-.9l-1.2,2.4Z"/>
    <path class="st1" d="M630.2,141.2c3-.6,5.7-2.4,7.1-5.4,2.6-5,.6-11.2-4.5-13.8s-11.2-.6-13.8,4.5c-2.2,4.3-1,9.3,2.4,12.3l7.4-14.7,1.3,17h0Z"/>
    <path class="st1" d="M626.5,136.7l-2,3.9c.8.3,1.5.5,2.3.6l-.3-4.6h0Z"/>
    <path class="st1" d="M496.5,131c.4-.8.6-1.6.8-2.4l-6.6-.6,4.4,5c.5-.6,1-1.3,1.4-2.1h0Z"/>
    <path class="st1" d="M497.5,125.2c-.4-3.3-2.3-6.4-5.5-8-.2-.1-.4-.2-.6-.2l-1.4,7.6,7.5.7h0Z"/>
    <path class="st1" d="M482.5,123.9l4,.4,1.5-8.1c-4-.3-7.9,1.8-9.8,5.6-2,3.9-1.2,8.4,1.5,11.5l5.7-5.8-3-3.4h0Z"/>
    <path class="st1" d="M482.5,135.3c0,0,.2.1.2.2,3.2,1.6,6.8,1.4,9.7-.2l-4.6-5.3-5.3,5.4h0Z"/>
    <path class="st1" d="M625.5,207.4c.8.9,1.8,1.7,3,2.3,5,2.6,11.2.6,13.8-4.5s.6-11.2-4.5-13.8c-1.2-.6-2.5-.9-3.7-1.1l.8,11.1-9.4,5.9Z"/>
    <path class="st1" d="M624,195.9c-1.4,2.8-1.4,5.9-.3,8.6l7.6-4.8-.7-9c-2.8.7-5.2,2.5-6.6,5.2Z"/>
    <path class="st1" d="M502.3,53.8c-4.9-2-10.5,0-13,4.8-2.6,5-.6,11.2,4.5,13.7.6.3,1.3.6,2,.8l1.8-10,4.7-9.2h0Z"/>
    <path class="st1" d="M499.2,73.3c3.5-.2,6.7-2.2,8.4-5.5,2.2-4.2,1-9.2-2.4-12.3l-4.4,8.6-1.7,9.2h0Z"/>
    <path class="st1" d="M508.7,21c.2-.4.5-.7.8-1-.3.3-.5.7-.8,1Z"/>
    <path class="st1" d="M507.1,25c.2-1.4.7-2.6,1.4-3.7-.2.3-.4.5-.5.8-2.4,4.8-.7,10.5,3.8,13.3v-.2c-3.3-2.1-5.2-6.1-4.6-10.3Z"/>
    <path class="st1" d="M515.6,36.7c-.2,0-.4-.1-.7-.2v.2c3.4.8,6.9-.3,9.4-2.8h0c-2.2,2.2-5.4,3.3-8.7,2.8h0Z"/>
    <path class="st1" d="M510.3,19.1c0,0,.2-.2.3-.2,0,0-.2.2-.3.2Z"/>
    <polygon class="st1" points="426.5 210 431 201.3 441.4 180.9 445.4 173.1 452.5 165.9 482.5 135.3 487.8 129.9 485.5 127.3 479.8 133.1 450.3 163.2 442.6 171.1 438.2 179.6 428.1 199.5 423.5 208.5 426.5 210"/>
    <path class="st1" d="M490,124.5l1.4-7.6,7.9-43.6,1.7-9.2,4.4-8.6,9.6-18.9v-.2c-1.1-.3-2.1-.7-3.1-1.3v.2c0,0-9.4,18.4-9.4,18.4l-4.7,9.2-1.8,10-7.8,43.1-1.5,8.1,3.4.3h0Z"/>
    <path class="st1" d="M569.7,242.5l12.8-8.1.6-.4,42.4-26.7,9.4-5.9-.8-11.1-3.8-49.2-1.3-17-7.4,14.7-45.1,90.1v.2c0,0-6.8,13.3-6.8,13.3h0ZM624.5,140.6l2-3.9.3,4.6,3.8,49.4.7,9-7.6,4.8-42.7,26.9-.5.3-2.3,1.4,1.2-2.4.2-.4,44.9-89.7h0Z"/>
    <path class="st1" d="M486.6,124.2l-4-.4,3,3.4,2.2,2.6,4.6,5.3,38.9,44.7,8.1,9.3,5.3-10.4,18.7-36.7,5.3-10.4-12.3-1.1-59-5.2-7.5-.7-3.4-.3h0ZM497.3,128.6l59.2,5.3,7,.6-3,5.9-18.7,36.7-3,5.9-4.6-5.3-39-44.8-4.4-5,6.6.6h0Z"/>
    <path class="st1" d="M524.3,29.4l2.1,1.7c.2-.4.4-.9.6-1.3l-2.6-.4Z"/>
    <path class="st1" d="M511.8,35.2c.9.6,2,1,3.2,1.3.2,0,.4.1.7.2,3.3.5,6.5-.6,8.7-2.8l-11.6-9.7,14.7,2.2c0-4.9-3.6-9.1-8.6-9.9-3.1-.5-6,.5-8.2,2.4,0,0-.2.2-.3.2-.3.3-.6.6-.9.9-.3.3-.5.7-.8,1,0,0-.1.2-.2.3-.7,1.1-1.1,2.3-1.4,3.7-.7,4.2,1.3,8.1,4.7,10.2h0Z"/>
    <path class="st1" d="M627.8,50.4c1.5,2.6,4.1,4.6,7.3,5.1,5.6.9,10.8-2.9,11.7-8.5s-2.9-10.8-8.5-11.7c-4.7-.8-9.2,1.9-11,6.1l16.3,2.5-15.8,6.5h0Z"/>
    <path class="st1" d="M626.7,47.2l4.2-1.8-4.4-.7c0,.8,0,1.6.1,2.4Z"/>
    <path class="st1" d="M573.8,61.4c-3.1-.5-6,.5-8.2,2.4l6.9,5.8,8.3-3.4c-1.5-2.4-4-4.2-7-4.7Z"/>
    <path class="st1" d="M563.4,66.4c-.6,1.1-1.1,2.2-1.3,3.5-.9,5.6,2.9,10.8,8.5,11.7s10.8-2.9,11.7-8.5c.2-1.3.1-2.6-.1-3.8l-10.2,4.2-8.5-7.1h0Z"/>
    <path class="st1" d="M512.7,24.2l11.6,9.7h0l39,32.5,8.5,7.1,10.2-4.2,45.6-18.8,15.8-6.5-16.3-2.5-99.9-15.1s-14.7-2.2-14.7-2.2ZM626.7,47.2l-45.8,18.9-8.3,3.4-6.9-5.8-39.2-32.7-2.1-1.7,2.6.4,99.6,15.1,4.4.7-4.2,1.8h0Z"/>
    <path class="st1" d="M797.9,51.1v-.4l-.2.3c0,0,.1,0,.2,0Z"/>
    <path class="st1" d="M688,897.1c2.3-3.9,1.8-9-1.5-12.4s-6.1-3.4-9.3-2.8l4.7,9,6.2,6.2h0Z"/>
    <path class="st1" d="M674,883.2c-.7.4-1.4.9-2,1.5-4,4-4,10.5,0,14.5s9.8,3.9,13.8.5l-6.8-6.8-5.1-9.7h0Z"/>
    <path class="st1" d="M715.5,800.5c-1.6,2.2-2.2,4.9-1.8,7.5l6.5-2.8-4.7-4.7Z"/>
    <path class="st1" d="M717.9,798.1l8.3,8.3-11.3,4.8c.5.9,1,1.7,1.7,2.4,4,4,10.5,4,14.5,0s4-10.5,0-14.5-9.1-3.9-13.1-1.1h0Z"/>
    <path class="st1" d="M688.8,769c2.8-4,2.5-9.5-1.1-13.1s-10.5-4-14.5,0-4,10.5,0,14.5,1.5,1.3,2.4,1.7l4.8-11.3,8.3,8.3h0Z"/>
    <path class="st1" d="M686.4,771.4l-4.7-4.7-2.8,6.5c2.6.4,5.3-.2,7.5-1.8Z"/>
    <path class="st1" d="M788.5,798c-5,2.6-11.2.6-13.8-4.5-.3-.6-.5-1.2-.7-1.8.4,1.8,1.3,3.6,2.7,5,4,4,10.5,4,14.5,0s3.5-6.5,2.6-10c.9,4.4-1.1,9-5.3,11.2h0Z"/>
    <path class="st1" d="M708.6,705.3c.4-3-.6-6.1-2.9-8.4-4-4-10.5-4-14.5,0s-4,10.5,0,14.5,8.5,3.9,12.5,1.5l-11.7-11.5,16.6,4h0Z"/>
    <path class="st1" d="M703.2,707.5l3.2,3.1c.5-.6,1-1.3,1.3-2l-4.5-1.1h0Z"/>
    <path class="st1" d="M652.4,826.6c-3.2-.7-6.8.2-9.3,2.8-.2.2-.3.4-.4.5l6.8,3.6,3-6.9h0Z"/>
    <path class="st1" d="M655.6,827.8l-2.6,6.1,6.1-2.6c-.4-.7-.9-1.4-1.5-2-.6-.6-1.3-1.1-2-1.5Z"/>
    <path class="st1" d="M657.3,844c0,0,.2-.1.2-.2,2.5-2.5,3.4-6,2.8-9.3l-6.5,2.8,3.5,6.7h0Z"/>
    <path class="st1" d="M646.5,840.4l1.6-3.7-7.2-3.9c-1.5,3.7-.7,8,2.3,11,3.1,3.1,7.6,3.8,11.4,2.1l-3.8-7.3-4.2,1.8h0Z"/>
    <path class="st1" d="M770.1,730.2c1.1-.5,2.2-1.2,3.1-2.1,4-4,4-10.5,0-14.5s-10.5-4-14.5,0-1.7,2-2.2,3.2l10.8,2.6,2.7,10.7h0Z"/>
    <path class="st1" d="M758.8,728.2c2.2,2.2,5.2,3.1,8,2.9l-2.2-8.7-8.8-2.1c-.2,2.8.8,5.8,2.9,7.9h0Z"/>
    <path class="st1" d="M603.6,808.9c.8-3.4,0-7-2.7-9.7-3.4-3.4-8.5-3.9-12.4-1.5l6.8,6.8,8.3,4.4h0Z"/>
    <path class="st1" d="M586,799.9c-3.4,4-3.2,10,.5,13.8s10.5,4,14.5,0,1-1,1.3-1.6l-9-4.8-7.3-7.3h0Z"/>
    <path class="st1" d="M573.1,782.2s0,0,0,0l.5.5c1.8-3.1,1.9-6.9.2-10l-.6.4c1.4,2.8,1.5,6.2,0,9.2h0Z"/>
    <path class="st1" d="M564.3,787.7c2.5.1,5.1-.7,7.1-2.4l-.4-.4c-1.8,1.7-4.2,2.7-6.7,2.8Z"/>
    <path class="st1" d="M567,767.8v-.2c-.8-.2-1.6-.3-2.5-.3.8,0,1.7.2,2.5.4Z"/>
    <path class="st1" d="M571.2,770.3l.5-.3c-.4-.4-.9-.8-1.4-1.1l-.2.4c.4.3.8.6,1.1.9h0Z"/>
    <polygon class="st1" points="650.7 838.6 654.5 845.9 674 883.2 679.1 893 685.8 899.7 701.6 915.5 708.8 922.7 711.2 920.3 704.2 913.3 688 897.1 681.8 891 677.2 882 657.3 844 653.8 837.3 650.7 838.6"/>
    <path class="st1" d="M649.5,833.5l-6.8-3.6-39.1-21-8.3-4.4-6.8-6.8-15-15-.5-.5c-.5,1.1-1.3,2-2.1,2.7l.4.4,14.6,14.6,7.3,7.3,9,4.8,38.6,20.7,7.2,3.9,1.3-3.2h0Z"/>
    <path class="st1" d="M777.6,780.9l-71.3-70.3-3.2-3.1,4.5,1.1,48.2,11.7,8.8,2.1,2.2,8.7,12.4,48.8s0,0,0,0c1-.5,2.1-.8,3.2-1l-12.3-48.6-2.7-10.7-10.8-2.6-48-11.6-16.6-4,11.7,11.5,71.6,70.6c.6-1,1.4-1.8,2.3-2.5h0Z"/>
    <path class="st1" d="M717.9,798.1l-29.2-29.2-8.3-8.3-4.8,11.3-23.2,54.5-3,6.9-1.3,3.2-1.6,3.7,4.2-1.8,3.1-1.3,6.5-2.8,54.5-23.2,11.3-4.8-8.3-8.3h0ZM659.1,831.3l-6.1,2.6,2.6-6.1,23.3-54.7,2.8-6.5,4.7,4.7,29.2,29.2,4.7,4.7-6.5,2.8-54.7,23.3Z"/>
    <path class="st1" d="M414.2,747.1l4.6-9c-4.9-2-10.5,0-13,4.8-2.6,5-.6,11.2,4.5,13.8,5,2.6,11.2.6,13.8-4.5,2.2-4.2,1-9.2-2.4-12.3l-4.5,8.8-3-1.5h0Z"/>
    <path class="st1" d="M440.9,701.8c-.6-.5-1.3-1-2-1.4-5-2.6-11.2-.6-13.8,4.5-2.4,4.8-.7,10.5,3.8,13.3l4.3-8.5,7.7-7.8Z"/>
    <path class="st1" d="M432.1,719.5c4.4,1,9.1-1.1,11.3-5.3,1.6-3.2,1.4-6.8-.2-9.7l-7.1,7.2-4,7.8h0Z"/>
    <path class="st1" d="M524.8,716.4l4.6,5.3,3-6c-2.6-.8-5.3-.5-7.7.6h0Z"/>
    <path class="st1" d="M535.5,717.3l-5.3,10.4-8.1-9.3c-.7.7-1.3,1.5-1.8,2.4-2.6,5-.6,11.2,4.5,13.8,5,2.6,11.2.6,13.8-4.5,2.3-4.5.9-9.9-3-12.8h0Z"/>
    <path class="st1" d="M554.2,680.5c4.7,1.5,9.8-.6,12.2-5.1,2.6-5,.6-11.2-4.5-13.8-5-2.6-11.2-.6-13.8,4.5-.5.9-.7,1.9-.9,2.8l12.3,1.1-5.3,10.4h0Z"/>
    <path class="st1" d="M551.1,679l3-6-7-.6c.4,2.6,1.8,5,4,6.6h0Z"/>
    <path class="st1" d="M571,784.9c.8-.8,1.5-1.7,2.1-2.7,0,0,0,0,0,0,1.5-3,1.4-6.4,0-9.2l-12.8,8.1,6.7-13.3c-.8-.2-1.7-.4-2.5-.4-3.9-.2-7.7,1.8-9.6,5.5-2.6,5-.6,11.2,4.5,13.8,1.6.8,3.2,1.1,4.9,1.1,2.5,0,4.9-1,6.7-2.8h0Z"/>
    <path class="st1" d="M568.9,771.7l2.3-1.4c-.3-.3-.7-.7-1.1-.9l-1.2,2.4Z"/>
    <path class="st1" d="M617.1,675.3l-2,4c.8.3,1.5.5,2.3.6l-.3-4.6h0Z"/>
    <path class="st1" d="M620.9,679.8c3-.6,5.7-2.4,7.1-5.3,2.6-5,.6-11.2-4.5-13.8-5-2.6-11.2-.6-13.8,4.5-2.2,4.3-1,9.3,2.4,12.3l7.4-14.7,1.3,17h0Z"/>
    <path class="st1" d="M488.2,663.8c-.4-3.3-2.3-6.4-5.5-8-.2-.1-.4-.2-.6-.2l-1.4,7.6,7.5.7h0Z"/>
    <path class="st1" d="M473.2,662.4l4,.4,1.5-8.1c-4-.3-7.9,1.8-9.8,5.6-2,3.9-1.2,8.4,1.5,11.5l5.7-5.8-3-3.4h0Z"/>
    <path class="st1" d="M473.1,673.8c0,0,.2.1.2.2,3.2,1.6,6.8,1.4,9.7-.2l-4.6-5.3-5.3,5.4h0Z"/>
    <path class="st1" d="M488,667.2l-6.6-.6,4.4,5c.5-.6,1-1.3,1.4-2.1.4-.8.6-1.6.8-2.4h0Z"/>
    <path class="st1" d="M614.6,734.5c-1.4,2.8-1.4,5.9-.3,8.5l7.6-4.8-.7-9c-2.8.7-5.2,2.5-6.6,5.2Z"/>
    <path class="st1" d="M616.2,745.9c.8.9,1.8,1.7,3,2.3,5,2.6,11.2.6,13.8-4.5,2.6-5,.6-11.2-4.5-13.8-1.2-.6-2.5-.9-3.7-1.1l.8,11.1-9.4,5.9Z"/>
    <path class="st1" d="M489.9,611.9c3.5-.2,6.7-2.2,8.4-5.5,2.2-4.2,1-9.2-2.4-12.3l-4.4,8.6-1.7,9.2h0Z"/>
    <path class="st1" d="M493,592.3c-4.9-2-10.5,0-13,4.8-2.6,5-.6,11.2,4.5,13.8.6.3,1.3.6,2,.8l1.8-10,4.7-9.2h0Z"/>
    <path class="st1" d="M497.8,563.5c.2-1.3.7-2.6,1.4-3.7-.2.3-.4.5-.5.8-2.4,4.8-.7,10.5,3.8,13.3v-.2c-3.3-2.1-5.2-6.1-4.6-10.2h0Z"/>
    <path class="st1" d="M499.3,559.6c.2-.4.5-.7.8-1-.3.3-.5.7-.8,1Z"/>
    <path class="st1" d="M501,557.7c0,0,.2-.2.3-.2,0,0-.2.2-.3.2Z"/>
    <path class="st1" d="M506.3,575.2c-.2,0-.4-.1-.7-.2v.2c3.4.8,6.9-.3,9.4-2.8h0c-2.2,2.2-5.4,3.3-8.7,2.8h0Z"/>
    <polygon class="st1" points="476.2 665.9 470.5 671.7 440.9 701.8 433.2 709.7 428.9 718.2 418.8 738 414.2 747.1 417.2 748.6 421.7 739.8 432.1 719.5 436 711.7 443.1 704.4 473.1 673.8 478.4 668.4 476.2 665.9"/>
    <path class="st1" d="M480.7,663.1l1.4-7.6,7.9-43.6,1.7-9.2,4.4-8.6,9.6-18.9v-.2c-1-.3-2.1-.7-3.1-1.3v.2c0,0-9.4,18.4-9.4,18.4l-4.7,9.2-1.8,10-7.8,43.1-1.5,8.1,3.4.3h0Z"/>
    <path class="st1" d="M560.3,781.1l12.8-8.1.6-.4,42.4-26.7,9.4-5.9-.8-11.1-3.8-49.2-1.3-17-7.4,14.7-45.1,90.2v.2c0,0-6.8,13.3-6.8,13.3h0ZM615.2,679.2l2-4,.3,4.6,3.8,49.4.7,9-7.6,4.8-42.7,26.9-.5.3-2.3,1.4,1.2-2.4.2-.4,44.9-89.7h0Z"/>
    <path class="st1" d="M535.5,717.3l18.7-36.7,5.3-10.4-12.3-1.1-59-5.2-7.5-.7-3.4-.3-4-.4,3,3.4,2.2,2.6,4.6,5.3,38.9,44.7,8.1,9.3,5.3-10.4h0ZM524.8,716.4l-39-44.8-4.4-5,6.6.6,59.2,5.3,7,.6-3,6-18.7,36.7-3,6-4.6-5.3h0Z"/>
    <path class="st1" d="M490.6,413.2l10,1.6c.4-5.2-3.3-10-8.5-10.8-5.6-.9-10.8,2.9-11.7,8.5s2.9,10.8,8.5,11.7c4.7.7,9.1-1.9,10.9-6l-9.7-1.5.5-3.4h0Z"/>
    <path class="st1" d="M541.9,424.7c.3-.8.6-1.5.7-2.4.9-5.6-2.9-10.8-8.5-11.7-5.3-.8-10.2,2.6-11.5,7.7l9.4,1.5,9.8,4.9h0Z"/>
    <path class="st1" d="M522.4,421.7c.4,4.5,3.8,8.4,8.5,9.1,3.5.6,6.9-.8,9.2-3.2l-9.1-4.5-8.6-1.4h0Z"/>
    <path class="st1" d="M553.9,508.9l-3.6,6,6.6,1c0-2.7-1.1-5.2-3-7.1h0Z"/>
    <path class="st1" d="M551.1,506.9c-.9-.4-1.8-.8-2.8-.9-5.6-.9-10.8,2.9-11.7,8.5-.9,5.6,2.9,10.8,8.5,11.7,5,.8,9.7-2.2,11.3-6.8l-11.6-1.8,6.3-10.6h0Z"/>
    <path class="st1" d="M597.6,522.4l6.6,1-1.6-6.9c-2.3,1.2-4.2,3.2-5,5.8h0Z"/>
    <path class="st1" d="M597.1,525.8c0,4.9,3.6,9.2,8.6,10,5.6.9,10.8-2.9,11.7-8.5s-2.9-10.8-8.5-11.7c-1-.2-2-.1-3,0l2.8,12-11.6-1.8h0Z"/>
    <path class="st1" d="M514.9,567.9l2.1,1.7c.2-.4.4-.9.6-1.3l-2.6-.4h0Z"/>
    <path class="st1" d="M502.5,573.8c1,.6,2,1,3.2,1.3.2,0,.4.1.7.2,3.3.5,6.5-.6,8.7-2.8l-11.6-9.7,14.7,2.2c0-4.9-3.6-9.1-8.6-9.9-3.1-.5-6,.5-8.2,2.4,0,0-.2.2-.3.2-.3.3-.6.6-.9.9-.3.3-.5.7-.8,1,0,0-.1.2-.2.3-.7,1.1-1.1,2.3-1.4,3.7-.7,4.2,1.3,8.1,4.7,10.2h0Z"/>
    <path class="st1" d="M617.3,585.8l4.2-1.8-4.4-.7c0,.8,0,1.6.1,2.4Z"/>
    <path class="st1" d="M618.5,589c1.5,2.6,4.1,4.6,7.3,5.1,5.6.9,10.8-2.9,11.7-8.5s-2.9-10.8-8.5-11.7c-4.7-.8-9.2,1.9-11,6.1l16.3,2.5-15.8,6.5h0Z"/>
    <path class="st1" d="M592.7,457.8c3-1.4,5.3-4.2,5.9-7.7,0-.2,0-.5,0-.7l-7.6,1,1.7,7.4h0Z"/>
    <path class="st1" d="M584.5,457.9c.8.3,1.5.6,2.4.7.8.1,1.7.1,2.5,0l-1.5-6.5-3.4,5.7h0Z"/>
    <path class="st1" d="M578.4,446.6c0,.1,0,.2,0,.3-.6,3.5.8,6.9,3.2,9.1l3.6-6.1-6.8-3.4h0Z"/>
    <path class="st1" d="M589.3,443.2l.9,4,8.2-1.1c-1-3.9-4.1-6.9-8.3-7.6-4.3-.7-8.4,1.4-10.4,5l7.3,3.6,2.3-3.9h0Z"/>
    <path class="st1" d="M554.1,604.9c-.6,1.1-1.1,2.2-1.3,3.5-.9,5.6,2.9,10.8,8.5,11.7s10.8-2.9,11.7-8.5c.2-1.3.1-2.6-.1-3.8l-10.2,4.2-8.5-7.1h0Z"/>
    <path class="st1" d="M564.5,600c-3.1-.5-6,.5-8.2,2.4l6.9,5.8,8.3-3.4c-1.5-2.4-4-4.2-7-4.7Z"/>
    <path class="st1" d="M642.5,443.5c1.3,3.2,4.2,5.7,7.8,6.3,4.7.7,9.1-1.9,10.9-6l-9.5-1.5-9.3,1.3h0Z"/>
    <path class="st1" d="M662.1,440.4c.4-5.2-3.3-10-8.5-10.8-5.6-.9-10.8,2.9-11.7,8.5-.1.7-.2,1.4-.1,2.1l10.1-1.4,10.3,1.6h0Z"/>
    <path class="st1" d="M684.6,439.3c.1-.1.3-.3.4-.4-.1.1-.2.3-.4.4Z"/>
    <path class="st1" d="M692.9,456.2v-.6c-.6,0-1.1,0-1.5-.1l-.2.6c.6,0,1.2.1,1.8,0h0Z"/>
    <path class="st1" d="M696.1,455.1v.4c1.7-.7,3.1-1.8,4.2-3.2-1.1,1.3-2.6,2.2-4.2,2.8Z"/>
    <path class="st1" d="M684.5,439.5c-1,1.2-1.7,2.5-2,4.1h.3c.3-1.5.8-2.9,1.7-4.1h0Z"/>
    <path class="st1" d="M682.7,447.1h-.5c.3,3.4,2.5,6.5,5.6,8.1l.3-.7c-2.8-1.4-4.8-4.1-5.3-7.4h0Z"/>
    <polygon class="st1" points="587 447.1 579.6 443.4 541.9 424.7 532 419.8 522.6 418.3 500.6 414.8 490.6 413.2 490 416.6 499.8 418.1 522.4 421.7 531 423.1 540.1 427.6 578.4 446.6 585.2 450 587 447.1"/>
    <path class="st1" d="M682.7,447c-.2-1.2-.1-2.3,0-3.4h-.3s-20.4-3.3-20.4-3.3l-10.3-1.6-10.1,1.4-43.4,5.9-8.2,1.1.8,3.3,7.6-1,43.9-6,9.3-1.3,9.5,1.5,20.9,3.3h.5c0,0,0,0,0,0h0Z"/>
    <path class="st1" d="M503.4,562.7l11.6,9.7h0l39,32.5,8.5,7.1,10.2-4.2,45.6-18.8,15.8-6.5-16.3-2.5-99.9-15.1-14.7-2.2h0ZM617.3,585.8l-45.8,18.9-8.3,3.4-6.9-5.8-39.2-32.7-2.1-1.7,2.6.4,99.6,15.1,4.4.7-4.2,1.8h0Z"/>
    <path class="st1" d="M590.2,447.2l-.9-4-2.3,3.9-1.8,2.9-3.6,6.1-30.4,50.8-6.3,10.6,11.6,1.8,40.7,6.5,11.6,1.8-2.8-12-13.2-57.8-1.7-7.4-.8-3.3h0ZM602.6,516.6l1.6,6.9-6.6-1-40.7-6.5-6.6-1,3.6-6,30.5-51,3.4-5.7,1.5,6.5,13.3,57.9h0Z"/>
    <path class="st1" d="M692.8,455.6l-.4-2.6-1,2.5c.5,0,1,.1,1.4.1h0Z"/>
    <path class="st1" d="M682.7,447h0c.5,3.3,2.6,6,5.3,7.4l5.6-14.1,2.4,14.7c1.7-.6,3.1-1.6,4.2-2.8,2-2.2,3-5.2,2.5-8.4-.9-5.6-6.1-9.4-11.7-8.5-2.5.4-4.7,1.7-6.2,3.6-.1.1-.3.3-.4.4,0,0,0,.1-.1.2-.9,1.2-1.4,2.6-1.7,4.1-.2,1.1-.3,2.2,0,3.4h0Z"/>
    <path class="st1" d="M712.6,554.8l2.7,16.2-11-13c-2.1,2.2-3.2,5.3-2.6,8.5.9,5.6,6.1,9.4,11.7,8.5s9.4-6.1,8.5-11.7c-.8-4.7-4.6-8.1-9.2-8.5Z"/>
    <path class="st1" d="M707,555.9l3,3.5-.7-4.4c-.8.2-1.5.5-2.2.9h0Z"/>
    <path class="st1" d="M677.2,510c-.5-3.1-2.3-5.6-4.8-7.1l-3.3,8.4,5.8,6.9c1.8-2.2,2.8-5.1,2.3-8.1h0Z"/>
    <path class="st1" d="M669.2,501.6c-1.2-.3-2.5-.3-3.8-.1-5.6.9-9.4,6.1-8.5,11.7.9,5.6,6.1,9.4,11.7,8.5,1.3-.2,2.5-.7,3.6-1.3l-7.2-8.5,4.1-10.3h0Z"/>
    <path class="st1" d="M712.6,554.8l-16.5-99.3v-.4c0,0-2.5-14.7-2.5-14.7l-5.6,14.1-.3.7-18.6,46.5-4.1,10.3,7.2,8.5,32,37.6,11,13-2.7-16.2h0ZM707,555.9l-32.1-37.8-5.8-6.9,3.3-8.4,18.7-46.8.2-.6,1-2.5.4,2.6v.6c0,0,16.5,98.8,16.5,98.8l.7,4.4-3-3.5h0Z"/>
    <path class="st1" d="M784.3,789.7l-1.5-3,8.8-4.5c-2.3-2.6-5.7-3.8-9.1-3.3-1.1.2-2.2.4-3.2,1,0,0,0,0,0,0-.5.3-1,.6-1.5,1-.9.7-1.7,1.6-2.3,2.5-1.6,2.5-2.1,5.5-1.2,8.4.2.6.4,1.2.7,1.8,2.6,5,8.7,7,13.8,4.5,4.2-2.1,6.2-6.8,5.3-11.2-.1-.6-.3-1.2-.5-1.8l-9,4.6h0Z"/>
    <polygon class="st1" points="791.5 782.2 782.7 786.7 784.3 789.7 793.3 785.1 791.5 782.2"/>
    <path class="st1" d="M9.9,274.8v-10.1c-5.2.4-9.4,4.8-9.4,10.1s4.6,10.2,10.2,10.2,10.2-4.6,10.2-10.2-3.3-8.7-7.7-9.9v9.9h-3.4,0Z"/>
    <path class="st1" d="M13.3,242c4.4-1.1,7.7-5.1,7.7-9.9s-1.9-6.7-4.6-8.5l-3,9.7v8.8h0Z"/>
    <path class="st1" d="M13.2,222.3c-.8-.2-1.6-.3-2.4-.3-5.6,0-10.2,4.6-10.2,10.2s4.1,9.7,9.4,10.1v-9.5l3.3-10.5h0Z"/>
    <path class="st1" d="M94.5,197.2l6.5,2.6v-6.7c-2.7.4-5,1.9-6.5,4.1h0Z"/>
    <path class="st1" d="M93,200.3c-.3.9-.5,1.9-.5,2.9,0,5.6,4.6,10.2,10.2,10.2s10.2-4.6,10.2-10.2-3.7-9.2-8.5-10.1v11.7l-11.4-4.6h0Z"/>
    <path class="st1" d="M101.1,151.9v-6.7l-6.5,2.6c1.5,2.1,3.8,3.6,6.5,4.1h0Z"/>
    <path class="st1" d="M104.5,151.9c4.8-.8,8.5-5,8.5-10.1s-4.6-10.2-10.2-10.2-10.2,4.6-10.2,10.2.2,2,.5,2.9l11.4-4.6v11.7h0Z"/>
    <path class="st1" d="M154.5,243c-5.4-1.7-8.3-7.5-6.6-12.9.2-.6.5-1.2.8-1.7-1,1.6-1.6,3.4-1.6,5.5,0,5.6,4.6,10.2,10.2,10.2s7.1-2.1,8.9-5.2c-2.5,3.8-7.2,5.6-11.7,4.1h0Z"/>
    <path class="st1" d="M163.6,120.9c2.4-1.9,3.9-4.7,3.9-8,0-5.6-4.6-10.2-10.2-10.2s-10.2,4.6-10.2,10.2,3.3,8.8,7.7,9.9v-16.4c-.1,0,8.8,14.6,8.8,14.6h0Z"/>
    <path class="st1" d="M158.2,118.6v4.4c.9,0,1.6-.2,2.4-.5l-2.4-3.9Z"/>
    <path class="st1" d="M24.1,172.5l3.8-1.5-2.4-7.9c-3.6,1.6-6.2,5.2-6.2,9.4s2.7,8,6.6,9.5l2.5-7.8-4.2-1.7h0Z"/>
    <path class="st1" d="M39.7,172.5c0-.9-.1-1.7-.3-2.5l-6.2,2.5,6.2,2.5c.2-.8.3-1.6.3-2.5Z"/>
    <path class="st1" d="M38,166.9c-1.8-2.8-5-4.6-8.5-4.6s-.5,0-.7,0l2.2,7.4,7-2.8Z"/>
    <path class="st1" d="M29.2,182.7c.1,0,.2,0,.3,0,3.6,0,6.7-1.8,8.5-4.6l-6.6-2.6-2.3,7.2Z"/>
    <path class="st1" d="M182.8,172.5c0,3.1,1.4,5.9,3.6,7.8l4.6-7.7-4.7-7.7c-2.1,1.9-3.5,4.6-3.5,7.7h0Z"/>
    <path class="st1" d="M189.4,182.1c1.1.4,2.4.7,3.7.7,5.6,0,10.2-4.6,10.2-10.2s-4.6-10.2-10.2-10.2-2.6.3-3.8.7l5.8,9.5-5.7,9.5h0Z"/>
    <path class="st1" d="M9.9,101.1c-5.2.4-9.4,4.8-9.4,10.1s4.6,10.2,10.2,10.2,1.4,0,2.1-.2l-2.9-9.8v-10.4h0Z"/>
    <path class="st1" d="M16,119.9c3-1.8,5-5,5-8.7s-3.3-8.7-7.7-9.9v9.6l2.7,9h0Z"/>
    <path class="st1" d="M13.4,79.5s0,0,0,0v.7c3.5-.9,6.2-3.6,7.2-7l-.7-.2c-1,2.9-3.3,5.4-6.5,6.4Z"/>
    <path class="st1" d="M3.2,77.1c1.7,1.9,4.1,3.1,6.7,3.3v-.5c-2.5,0-4.9-1.1-6.7-2.8h0Z"/>
    <path class="st1" d="M19.2,65h.2c-.5-.8-1-1.5-1.6-2.1.6.6,1,1.3,1.4,2.1h0Z"/>
    <path class="st1" d="M20.3,68.2c0,.5.1,1,.1,1.4h.5c0-.5,0-1-.2-1.6,0,0-.4.2-.4.1Z"/>
    <polygon class="st1" points="28.3 174.2 25.9 182.1 13.2 222.3 9.9 232.8 9.9 242.3 9.9 264.6 9.9 274.8 13.3 274.8 13.3 264.9 13.3 242 13.3 233.3 16.4 223.6 29.2 182.7 31.5 175.5 28.3 174.2"/>
    <path class="st1" d="M9.9,79.9v31.5l2.9,9.8,12.6,41.9,2.4,7.9,3.2-1.3-2.2-7.4-12.8-42.4-2.7-9v-31.5c-1.1.4-2.3.5-3.4.4h0Z"/>
    <path class="st1" d="M158.9,223.2l-.7-100.1v-4.4s2.4,3.9,2.4,3.9l25.8,42.3,4.7,7.7-4.6,7.7-25.8,43.3s0,0,.1,0c1.1.4,2.1.9,2.9,1.6l25.7-43.1,5.7-9.5-5.8-9.5-25.7-42.1-8.9-14.6v16.4c.1,0,.8,100.5.8,100.5,1.1-.2,2.2-.3,3.4-.2h0Z"/>
    <path class="st1" d="M27.9,171l-3.8,1.5,4.2,1.7,3.2,1.3,6.6,2.6,55,22.1,11.4,4.6v-64.7l-11.4,4.6-55,22.1-7,2.8-3.2,1.3h0ZM39.4,170.1l55.1-22.2,6.5-2.6v54.6l-6.5-2.6-55.1-22.2-6.2-2.5s6.2-2.5,6.2-2.5Z"/>
    <path class="st1" d="M17.8,69.1l2.6.6c0-.5,0-1-.1-1.4,0,0-2.5.8-2.5.8Z"/>
    <path class="st1" d="M9.9,79.9c1.1,0,2.3,0,3.4-.4,0,0,0,0,0,0,3.2-1,5.5-3.5,6.5-6.4l-14.8-3.3,14.1-4.7c-.4-.8-.9-1.5-1.4-2.1-2.6-2.9-6.8-4.2-10.7-2.9-5.4,1.7-8.3,7.5-6.6,12.9.5,1.7,1.5,3.1,2.7,4.2,1.8,1.7,4.2,2.7,6.7,2.8h0Z"/>
    <path class="st1" d="M122.1,22.7c-4.6,1.5-7.3,5.9-7,10.4l15.6-5.2-11.1,12.9c2.5,1.7,5.7,2.3,8.8,1.3,5.4-1.7,8.3-7.5,6.6-12.9-1.7-5.4-7.5-8.3-12.9-6.6h0Z"/>
    <path class="st1" d="M120.1,35l-4.2,1.4c.3.8.7,1.5,1.2,2.1,0,0,3-3.5,3-3.5Z"/>
    <path class="st1" d="M69.4,84.3c0,1.2,0,2.5.5,3.7,1.7,5.4,7.5,8.3,12.9,6.6,5.4-1.7,8.3-7.5,6.6-12.9-.4-1.3-1.1-2.4-1.9-3.4l-7.2,8.4-10.8-2.4h0Z"/>
    <path class="st1" d="M76.4,75.1c-3,1-5.1,3.2-6.2,5.8l8.8,2,5.9-6.8c-2.4-1.5-5.5-1.9-8.4-1h0Z"/>
    <path class="st1" d="M115.1,33.1l-95.7,31.8h-.2c0,0-14.1,4.8-14.1,4.8l14.8,3.3.7.2,48.9,11.1,10.8,2.4,7.2-8.4,32.1-37.5,11.1-13-15.6,5.2h0ZM79,82.9l-8.8-2-49.2-11.2h-.5c0-.1-2.6-.7-2.6-.7l2.5-.8.4-.2,95.2-31.7,4.2-1.4-3,3.5-32.3,37.6-5.9,6.8h0Z"/>
    <path class="st1" d="M445.8,20.1c.5.6,1.1,1.2,1.8,1.7,4.6,3.3,11,2.3,14.3-2.3,3.1-4.3,2.4-10.3-1.6-13.7l-5.6,7.7-8.8,6.6h0Z"/>
    <path class="st1" d="M457.4,4c-4.2-1.7-9.2-.4-12,3.5-2.1,2.9-2.5,6.5-1.3,9.6l8.1-6,5.1-7.1h0Z"/>
    <path class="st1" d="M377.3,120.1c4.5,2.7,10.4,1.6,13.5-2.7,3.3-4.6,2.3-11-2.3-14.3-.6-.4-1.2-.8-1.8-1.1l-3.4,9.6-6.1,8.4h0Z"/>
    <path class="st1" d="M383.4,101.2c-3.5-.3-7,1.1-9.1,4.1-2.8,3.8-2.5,9,.4,12.5l5.6-7.8,3.1-8.8h0Z"/>
    <path class="st1" d="M366.8,150.4c.2-.2.3-.5.4-.7-.3.4-.5.8-.9,1.2.1-.2.3-.3.4-.5Z"/>
    <path class="st1" d="M365.8,151.5c-.2.3-.5.5-.8.8.3-.2.5-.5.8-.8Z"/>
    <path class="st1" d="M364.2,152.9c-.2.1-.4.3-.6.4.2-.1.4-.3.6-.4Z"/>
    <path class="st1" d="M362.2,153.9c0,0-.2,0-.3.1.1,0,.2,0,.3-.1Z"/>
    <path class="st1" d="M368.1,147.6c-.2.6-.5,1.2-.8,1.8,2.4-4.2,1.5-9.5-2.2-12.7h0c3,2.6,4.3,6.9,3,10.9h0Z"/>
    <polygon class="st1" points="350.1 138.6 350.1 138.6 350.1 138.6 350.1 138.6"/>
    <path class="st1" d="M361.6,134.8c.2,0,.4.2.6.3h0c-2.1-.9-4.5-1-6.6-.4,1.9-.5,4-.5,6,.1Z"/>
    <path class="st1" d="M352.6,136.1c.3-.2.7-.5,1-.7-.4.2-.7.4-1,.7Z"/>
    <path class="st1" d="M354,135.3c.5-.2,1-.5,1.6-.6-.5.2-1,.4-1.6.6Z"/>
    <polygon class="st1" points="457.4 4 452.2 11.1 444.1 17.1 409.6 42.7 403.6 47.2 405.4 50.1 412 45.2 445.8 20.1 454.7 13.5 460.3 5.8 457.4 4"/>
    <path class="st1" d="M400.5,52.1l-2.5,7.2-14.6,41.9-3.1,8.8-5.6,7.8-12.4,17.1h0c1.1.5,2.1,1.1,3,1.8h0s12.1-16.7,12.1-16.7l6.1-8.4,3.4-9.6,14.4-41.3,2.7-7.8-3.3-.8h0Z"/>
    <path class="st1" d="M355.2,286.7c-4.5-1.5-9.3.4-11.8,4.2l9.4,3-1,3.2-9.6-3.1c-1.2,5.1,1.6,10.4,6.7,12,5.4,1.7,11.1-1.2,12.9-6.6s-1.2-11.1-6.6-12.9h0Z"/>
    <path class="st1" d="M321.7,283.9c.3-4.5-2.5-8.9-7-10.3-3.4-1.1-7-.3-9.6,1.8l8.2,5.9,8.3,2.7h0Z"/>
    <path class="st1" d="M302.9,277.9c-.4.7-.8,1.4-1.1,2.2-1.7,5.4,1.2,11.1,6.6,12.9,5.1,1.6,10.5-.9,12.5-5.8l-9.1-3-9-6.4h0Z"/>
    <path class="st1" d="M306.6,195.2c.8.6,1.7,1,2.6,1.4,5.4,1.7,11.1-1.2,12.9-6.6,1.7-5.4-1.2-11.1-6.6-12.9-4.8-1.6-9.9.6-12.2,5l11.1,3.6-7.9,9.5Z"/>
    <path class="st1" d="M304.2,192.8l4.5-5.4-6.4-2.1c-.4,2.7.3,5.4,1.8,7.5h0Z"/>
    <path class="st1" d="M264.2,169.4c.7-4.9-2.1-9.6-6.9-11.2-5.4-1.7-11.1,1.2-12.9,6.6-1.7,5.4,1.2,11.1,6.6,12.9,1,.3,2,.4,2.9.4l-.8-12.3,11.1,3.6h0Z"/>
    <path class="st1" d="M263.1,172.6l-6.4-2.1.5,7c2.5-.8,4.6-2.6,5.9-5h0Z"/>
    <path class="st1" d="M349.4,139.8l2.5.8-1.8-2h0c-.3.4-.5.8-.8,1.2h0Z"/>
    <path class="st1" d="M365.1,136.8c-.9-.7-1.9-1.3-3-1.7-.2,0-.4-.2-.6-.3-2-.6-4.1-.6-6-.1h0c-.5.2-1.1.4-1.6.6-.1,0-.2.1-.4.2-.4.2-.7.4-1,.7,0,0,0,0,0,0l10,11.4-14.2-4.5c-.7,4.8,2.1,9.6,6.9,11.1,2.2.7,4.6.6,6.6-.1,0,0,.2,0,.3-.1.5-.2.9-.4,1.4-.6.2-.1.4-.3.6-.4.3-.2.6-.4.9-.6.3-.2.5-.5.8-.8.2-.2.4-.4.5-.6.3-.4.6-.8.9-1.2,0-.1.1-.2.2-.3.3-.6.6-1.1.8-1.8,1.3-4,0-8.3-3-10.9h0Z"/>
    <path class="st1" d="M253.6,107l-4.5,1.1,4.2,1.3c.2-.8.3-1.6.3-2.4Z"/>
    <path class="st1" d="M252.9,103.6c-1-2.8-3.3-5.2-6.4-6.2-5.4-1.7-11.1,1.2-12.9,6.6-1.7,5.4,1.2,11.1,6.6,12.9,4.6,1.5,9.4-.4,11.8-4.3l-15.7-5,16.6-3.9h0Z"/>
    <path class="st1" d="M270.2,250.5c0-.1,0-.2.1-.3,1.1-3.4.3-6.9-1.8-9.5l-4.5,5.4,6.2,4.4h0Z"/>
    <path class="st1" d="M261.3,236.9l.5,6.6,4.3-5.1c-.7-.4-1.4-.8-2.3-1.1-.8-.3-1.6-.4-2.5-.4h0Z"/>
    <path class="st1" d="M257.9,237.2c-3.2.9-5.9,3.3-7,6.7,0,.2,0,.4-.1.7l7.7.2-.5-7.5h0Z"/>
    <path class="st1" d="M259,252.2l-.3-4.1-8.2-.2c.4,3.9,3,7.5,7,8.8,4.1,1.3,8.5-.1,11.1-3.3l-6.7-4.8-2.9,3.5h0Z"/>
    <path class="st1" d="M319.1,98c.8-.9,1.4-2,1.8-3.3,1.7-5.4-1.2-11.1-6.6-12.9s-11.1,1.2-12.9,6.6c-.4,1.3-.5,2.6-.5,3.8l10.8-2.6s7.3,8.3,7.3,8.3Z"/>
    <path class="st1" d="M308,101.2c3,1,6,.5,8.5-1.1l-5.9-6.8-8.8,2.1c1.1,2.6,3.3,4.8,6.2,5.7h0Z"/>
    <path class="st1" d="M186.6,243.6c-1.2,5.1,1.6,10.4,6.7,12,5.4,1.7,11.1-1.2,12.9-6.6.2-.7.4-1.4.4-2.1l-10.2-.2-9.9-3.2h0Z"/>
    <path class="st1" d="M206.4,243.6c-.8-3.4-3.2-6.3-6.8-7.4-4.5-1.5-9.3.4-11.8,4.2l9.1,3,9.4.2Z"/>
    <path class="st1" d="M157.4,234.1l1.1-3.2,9.4,3.1c.2-3.4-1.3-6.7-4.1-8.8-.9-.6-1.8-1.2-2.9-1.6,0,0,0,0-.1,0-.6-.2-1.2-.3-1.8-.4-1.2-.1-2.3,0-3.4.2-2.9.6-5.4,2.4-6.9,5.1-.3.5-.6,1.1-.8,1.7-1.7,5.4,1.2,11.1,6.6,12.9,4.5,1.5,9.2-.4,11.7-4.1.3-.5.6-1.1.9-1.6l-9.6-3.1h0Z"/>
    <polygon class="st1" points="352.8 294 343.5 291 321.7 283.9 313.4 281.2 305.1 275.3 270.2 250.5 264.1 246.1 261.9 248.7 268.5 253.5 302.9 277.9 311.8 284.3 320.9 287.2 342.1 294.1 351.8 297.3 352.8 294"/>
    <polygon class="st1" points="258.4 244.7 250.8 244.6 206.4 243.6 197.1 243.4 187.9 240.4 167.8 233.9 158.4 230.9 157.4 234.1 167 237.2 186.6 243.6 196.5 246.8 206.7 247 250.4 248 258.7 248.1 258.4 244.7"/>
    <path class="st1" d="M362.5,147.6l-10-11.4-33.5-38.2-7.3-8.3-10.8,2.6-48,11.4-16.6,3.9,15.7,5,96.3,30.5,14.2,4.5h0ZM253.6,107l48.2-11.5,8.8-2.1,5.9,6.8,33.6,38.4h0l1.8,2-2.5-.8-96.1-30.5-4.2-1.3,4.5-1.1h0Z"/>
    <path class="st1" d="M258.7,248.1l.3,4.1,2.9-3.5,2.2-2.6,4.5-5.4,38-45.4,7.9-9.5-11.1-3.6-39.2-12.7-11.1-3.6.8,12.3,4,59.1.5,7.5.2,3.4h0ZM263.1,172.6l39.2,12.7,6.4,2.1-4.5,5.4-38.1,45.6-4.3,5.1-.5-6.6-4.1-59.3-.5-7,6.4,2.1Z"/>
    <circle class="st1" cx="402.7" cy="50.5" r="10.2"/>
    <circle class="st1" cx="792.7" cy="248.7" r="10.5"/>
    <path class="st1" d="M708.8,922.7l-7.2-7.2c-3.4,4-3.2,10,.5,13.8s10.5,4,14.5,0,4-10.5,0-14.5-8.5-3.9-12.4-1.5l7,7-2.4,2.4h0Z"/>
  </g>
</svg>