<?xml version="1.0" encoding="UTF-8"?>
<svg id="Layer_1" data-name="Layer 1" xmlns="http://www.w3.org/2000/svg" viewBox="0 0 800 388.13">
  <defs>
    <style>
      .cls-1 {
        fill: #11141e;
      }

      .cls-2 {
        fill: #1d1d1b;
      }

      .cls-3 {
        fill: #5e7ab0;
      }
    </style>
  </defs>
  <path class="cls-1" d="M784.98,30.52c-8.28,0-15.02-6.74-15.02-15.02s6.74-15.02,15.02-15.02,15.02,6.74,15.02,15.02-6.74,15.02-15.02,15.02Zm0-28.58c-7.47,0-13.56,6.08-13.56,13.56s6.08,13.56,13.56,13.56,13.56-6.08,13.56-13.56-6.08-13.56-13.56-13.56Z"/>
  <g>
    <g>
      <path class="cls-1" d="M157.36,133.27c8.7,10.93,13.05,23.31,13.05,37.13,0,11.82-3.07,22.47-9.2,31.94-6.14,9.48-15,16.95-26.59,22.41-11.6,5.47-25.09,8.2-40.47,8.2H1.15V.48H89.79c15.83,0,29.44,2.68,40.81,8.03,11.37,5.35,19.96,12.54,25.76,21.57,5.8,9.03,8.7,19.13,8.7,30.27,0,13.38-3.57,24.53-10.7,33.45-7.14,8.92-16.72,15.5-28.77,19.74,12.49,2.23,23.08,8.81,31.78,19.74ZM39.28,98.15h47.16c12.49,0,22.24-2.84,29.27-8.53,7.02-5.69,10.54-13.88,10.54-24.59s-3.51-18.67-10.54-24.59c-7.03-5.91-16.78-8.86-29.27-8.86H39.28V98.15Zm81.95,94.33c7.36-6.24,11.04-14.94,11.04-26.09s-3.9-20.41-11.71-27.09c-7.81-6.69-18.18-10.04-31.11-10.04H39.28v72.59h51.51c12.93,0,23.08-3.12,30.44-9.37Z"/>
      <g>
        <path class="cls-1" d="M253.47,68.12V232.95h-38.13V68.12h38.13Z"/>
        <circle class="cls-1" cx="234.31" cy="19.55" r="19.55"/>
      </g>
      <path class="cls-1" d="M332.97,224.09c-14.05-7.91-25.09-19.07-33.12-33.45-8.03-14.38-12.04-31.05-12.04-50.01s4.12-35.34,12.38-49.84c8.25-14.49,19.51-25.64,33.78-33.45,14.27-7.8,30.21-11.71,47.83-11.71s33.56,3.9,47.83,11.71c14.27,7.81,25.53,18.96,33.78,33.45,8.25,14.5,12.38,31.11,12.38,49.84s-4.24,35.35-12.71,49.84c-8.48,14.5-20.02,25.71-34.62,33.62-14.61,7.92-30.72,11.88-48.34,11.88s-33.12-3.96-47.16-11.88Zm74.76-28.27c8.58-4.68,15.55-11.71,20.91-21.07,5.35-9.36,8.03-20.74,8.03-34.12s-2.57-24.7-7.69-33.95c-5.13-9.25-11.93-16.22-20.4-20.91-8.48-4.68-17.62-7.02-27.43-7.02s-18.9,2.34-27.26,7.02c-8.36,4.68-15,11.66-19.9,20.91-4.91,9.26-7.36,20.57-7.36,33.95,0,19.85,5.07,35.18,15.22,45.99,10.14,10.82,22.91,16.22,38.3,16.22,9.81,0,19.01-2.34,27.6-7.03Z"/>
      <path class="cls-3" d="M548.27,.48V232.95h-38.13V.48h38.13Z"/>
      <path class="cls-3" d="M741.5,14.69c18.62,9.48,33,23.08,43.15,40.81,10.14,17.73,15.22,38.42,15.22,62.05s-5.08,44.15-15.22,61.55c-10.15,17.4-24.53,30.72-43.15,39.97-18.62,9.26-40.31,13.88-65.06,13.88h-75.93V.48h75.93c24.75,0,46.44,4.74,65.06,14.22Zm-2.51,165.08c14.49-14.72,21.74-35.46,21.74-62.22s-7.25-48.05-21.74-63.22c-14.5-15.16-35.35-22.75-62.55-22.75h-37.8V201.84h37.8c27.2,0,48.05-7.36,62.55-22.08Z"/>
    </g>
    <path class="cls-2" d="M787.63,24.24l-3.75-6.81h-1.05v6.81h-4.39V6.21h7.37c1.42,0,2.63,.25,3.63,.74,1,.5,1.75,1.18,2.25,2.04,.5,.86,.75,1.83,.75,2.89,0,1.2-.34,2.27-1.01,3.21-.68,.94-1.67,1.61-2.99,2l4.16,7.14h-4.96Zm-4.8-9.92h2.72c.8,0,1.41-.2,1.81-.59,.4-.39,.6-.95,.6-1.67s-.2-1.22-.6-1.62c-.4-.39-1.01-.59-1.81-.59h-2.72v4.47Z"/>
    <g>
      <path class="cls-2" d="M21.66,297.86c3.77-1.9,7.96-2.85,12.59-2.85,5.45,0,10.37,1.31,14.77,3.92,4.4,2.61,7.87,6.32,10.41,11.14,2.54,4.81,3.81,10.32,3.81,16.51s-1.27,11.73-3.81,16.62c-2.54,4.89-6.03,8.69-10.47,11.42-4.44,2.72-9.35,4.08-14.72,4.08-4.78,0-9.01-.93-12.7-2.8-3.69-1.86-6.62-4.25-8.79-7.16v8.95H0v-82.83H12.76v30.33c2.16-2.98,5.13-5.43,8.9-7.33Zm25.97,17.68c-1.75-3.1-4.07-5.45-6.94-7.05-2.87-1.6-5.95-2.41-9.23-2.41s-6.25,.82-9.12,2.46c-2.87,1.64-5.19,4.03-6.94,7.16-1.75,3.13-2.63,6.83-2.63,11.08s.88,7.97,2.63,11.14c1.75,3.17,4.07,5.58,6.94,7.22,2.87,1.64,5.91,2.46,9.12,2.46s6.36-.84,9.23-2.52c2.87-1.68,5.19-4.12,6.94-7.33,1.75-3.21,2.63-6.94,2.63-11.19s-.88-7.93-2.63-11.02Z"/>
      <path class="cls-2" d="M131.96,331.61h-47.12c.37,4.92,2.2,8.88,5.48,11.86,3.28,2.99,7.31,4.48,12.09,4.48,6.86,0,11.71-2.87,14.55-8.62h13.77c-1.87,5.67-5.24,10.32-10.13,13.94-4.89,3.62-10.95,5.43-18.19,5.43-5.9,0-11.18-1.32-15.84-3.97-4.66-2.65-8.32-6.38-10.97-11.19-2.65-4.81-3.97-10.39-3.97-16.73s1.29-11.92,3.86-16.73c2.57-4.81,6.19-8.52,10.86-11.14,4.66-2.61,10.02-3.92,16.06-3.92s11.01,1.27,15.56,3.81c4.55,2.54,8.1,6.1,10.63,10.69,2.54,4.59,3.81,9.87,3.81,15.84,0,2.31-.15,4.4-.45,6.27Zm-12.87-10.3c-.08-4.7-1.75-8.47-5.04-11.3-3.28-2.84-7.35-4.25-12.2-4.25-4.4,0-8.17,1.4-11.3,4.2-3.13,2.8-5,6.59-5.6,11.36h34.14Z"/>
      <path class="cls-2" d="M194.25,297.64c3.1-1.75,6.77-2.63,11.03-2.63v13.21h-3.25c-5,0-8.79,1.27-11.36,3.81-2.57,2.54-3.86,6.94-3.86,13.21v32.46h-12.76v-61.67h12.76v8.95c1.86-3.13,4.35-5.58,7.44-7.33Z"/>
      <path class="cls-2" d="M273.1,331.61h-47.12c.37,4.92,2.2,8.88,5.48,11.86,3.28,2.99,7.31,4.48,12.09,4.48,6.86,0,11.71-2.87,14.55-8.62h13.77c-1.87,5.67-5.24,10.32-10.13,13.94-4.89,3.62-10.95,5.43-18.19,5.43-5.9,0-11.18-1.32-15.84-3.97-4.66-2.65-8.32-6.38-10.97-11.19-2.65-4.81-3.97-10.39-3.97-16.73s1.29-11.92,3.86-16.73c2.57-4.81,6.19-8.52,10.86-11.14,4.66-2.61,10.02-3.92,16.06-3.92s11.01,1.27,15.56,3.81c4.55,2.54,8.1,6.1,10.63,10.69,2.54,4.59,3.81,9.87,3.81,15.84,0,2.31-.15,4.4-.45,6.27Zm-12.87-10.3c-.08-4.7-1.75-8.47-5.04-11.3-3.28-2.84-7.35-4.25-12.2-4.25-4.4,0-8.17,1.4-11.3,4.2-3.13,2.8-5,6.59-5.6,11.36h34.14Z"/>
      <path class="cls-2" d="M285.69,310.06c2.57-4.81,6.14-8.52,10.69-11.14,4.55-2.61,9.77-3.92,15.67-3.92,7.46,0,13.64,1.77,18.52,5.32,4.89,3.55,8.19,8.6,9.91,15.17h-13.77c-1.12-3.06-2.91-5.45-5.37-7.16-2.46-1.72-5.56-2.57-9.29-2.57-5.22,0-9.38,1.85-12.48,5.54-3.1,3.69-4.65,8.86-4.65,15.5s1.55,11.83,4.65,15.56c3.1,3.73,7.26,5.6,12.48,5.6,7.39,0,12.27-3.25,14.66-9.74h13.77c-1.79,6.27-5.15,11.25-10.07,14.94-4.93,3.69-11.04,5.54-18.36,5.54-5.9,0-11.12-1.32-15.67-3.97-4.55-2.65-8.11-6.38-10.69-11.19-2.57-4.81-3.86-10.39-3.86-16.73s1.29-11.92,3.86-16.73Z"/>
      <path class="cls-2" d="M364.21,354.72c-4.7-2.65-8.39-6.38-11.08-11.19-2.69-4.81-4.03-10.39-4.03-16.73s1.38-11.83,4.14-16.68c2.76-4.85,6.53-8.58,11.3-11.19,4.77-2.61,10.11-3.92,16.01-3.92s11.23,1.31,16.01,3.92c4.77,2.61,8.54,6.34,11.3,11.19,2.76,4.85,4.14,10.41,4.14,16.68s-1.42,11.83-4.25,16.68c-2.84,4.85-6.7,8.6-11.58,11.25-4.89,2.65-10.28,3.97-16.17,3.97s-11.08-1.32-15.78-3.97Zm25.02-9.46c2.87-1.57,5.2-3.92,7-7.05,1.79-3.13,2.69-6.94,2.69-11.42s-.86-8.26-2.57-11.36c-1.72-3.1-3.99-5.43-6.83-7-2.84-1.57-5.9-2.35-9.18-2.35s-6.32,.78-9.12,2.35c-2.8,1.57-5.02,3.9-6.66,7-1.64,3.1-2.46,6.88-2.46,11.36,0,6.64,1.7,11.77,5.09,15.39,3.39,3.62,7.67,5.43,12.82,5.43,3.28,0,6.36-.78,9.23-2.35Z"/>
      <path class="cls-2" d="M462.2,297.86c3.69,1.9,6.58,4.27,8.67,7.11v-8.95h12.87v62.68c0,5.67-1.19,10.73-3.58,15.17-2.39,4.44-5.84,7.93-10.35,10.47-4.52,2.54-9.91,3.81-16.17,3.81-8.36,0-15.3-1.96-20.82-5.88-5.52-3.92-8.66-9.23-9.4-15.95h12.65c.97,3.21,3.04,5.8,6.21,7.78,3.17,1.98,6.96,2.97,11.36,2.97,5.15,0,9.31-1.57,12.48-4.7,3.17-3.13,4.76-7.69,4.76-13.66v-10.3c-2.17,2.91-5.09,5.36-8.79,7.33-3.69,1.98-7.89,2.97-12.59,2.97-5.37,0-10.28-1.36-14.72-4.08-4.44-2.72-7.95-6.53-10.52-11.42-2.57-4.89-3.86-10.43-3.86-16.62s1.29-11.68,3.86-16.45c2.57-4.77,6.08-8.49,10.52-11.14,4.44-2.65,9.35-3.97,14.72-3.97,4.77,0,9.01,.95,12.7,2.85Zm6.04,17.85c-1.75-3.13-4.05-5.52-6.88-7.16-2.84-1.64-5.9-2.46-9.18-2.46s-6.34,.8-9.18,2.41c-2.84,1.61-5.13,3.96-6.88,7.05-1.75,3.1-2.63,6.77-2.63,11.02s.88,7.99,2.63,11.19c1.75,3.21,4.07,5.65,6.94,7.33,2.87,1.68,5.91,2.52,9.12,2.52s6.34-.82,9.18-2.46c2.84-1.64,5.13-4.05,6.88-7.22,1.75-3.17,2.63-6.88,2.63-11.14s-.88-7.95-2.63-11.08Z"/>
      <path class="cls-2" d="M544.69,298.03c3.84,2.01,6.84,5,9.01,8.95,2.16,3.96,3.25,8.73,3.25,14.33v36.38h-12.65v-34.47c0-5.52-1.38-9.76-4.14-12.7-2.76-2.95-6.53-4.42-11.3-4.42s-8.56,1.47-11.36,4.42c-2.8,2.95-4.2,7.18-4.2,12.7v34.47h-12.76v-61.67h12.76v7.05c2.09-2.54,4.76-4.51,8-5.93,3.25-1.42,6.7-2.13,10.35-2.13,4.85,0,9.2,1.01,13.04,3.02Z"/>
      <path class="cls-2" d="M573.85,285.49c-1.57-1.57-2.35-3.51-2.35-5.82s.78-4.25,2.35-5.82c1.57-1.57,3.51-2.35,5.82-2.35s4.14,.78,5.71,2.35,2.35,3.51,2.35,5.82-.78,4.25-2.35,5.82c-1.57,1.57-3.47,2.35-5.71,2.35s-4.25-.78-5.82-2.35Zm12.09,10.52v61.67h-12.76v-61.67h12.76Z"/>
      <path class="cls-2" d="M614.03,347.28h27.98v10.41h-42.76v-10.41l28.09-40.85h-28.09v-10.41h42.76v10.41l-27.98,40.85Z"/>
      <path class="cls-2" d="M711.52,331.61h-47.12c.37,4.92,2.2,8.88,5.48,11.86,3.28,2.99,7.31,4.48,12.09,4.48,6.86,0,11.71-2.87,14.55-8.62h13.77c-1.87,5.67-5.24,10.32-10.13,13.94-4.89,3.62-10.95,5.43-18.19,5.43-5.9,0-11.18-1.32-15.84-3.97-4.66-2.65-8.32-6.38-10.97-11.19-2.65-4.81-3.97-10.39-3.97-16.73s1.29-11.92,3.86-16.73c2.57-4.81,6.19-8.52,10.86-11.14,4.66-2.61,10.02-3.92,16.06-3.92s11.01,1.27,15.56,3.81c4.55,2.54,8.1,6.1,10.63,10.69,2.54,4.59,3.81,9.87,3.81,15.84,0,2.31-.15,4.4-.45,6.27Zm-12.87-10.3c-.08-4.7-1.75-8.47-5.04-11.3-3.28-2.84-7.35-4.25-12.2-4.25-4.4,0-8.17,1.4-11.3,4.2-3.13,2.8-5,6.59-5.6,11.36h34.14Z"/>
      <path class="cls-2" d="M724.11,310.12c2.57-4.77,6.08-8.49,10.52-11.14,4.44-2.65,9.38-3.97,14.83-3.97,4.03,0,8,.88,11.92,2.63,3.92,1.75,7.03,4.09,9.35,7v-29.77h12.87v82.83h-12.87v-9.29c-2.09,2.99-4.98,5.45-8.67,7.39-3.69,1.94-7.93,2.91-12.7,2.91-5.37,0-10.28-1.36-14.72-4.08-4.44-2.72-7.95-6.53-10.52-11.42-2.57-4.89-3.86-10.43-3.86-16.62s1.29-11.68,3.86-16.45Zm43.99,5.6c-1.75-3.13-4.05-5.52-6.88-7.16-2.84-1.64-5.9-2.46-9.18-2.46s-6.34,.8-9.18,2.41c-2.84,1.61-5.13,3.96-6.88,7.05-1.75,3.1-2.63,6.77-2.63,11.02s.88,7.99,2.63,11.19c1.75,3.21,4.07,5.65,6.94,7.33,2.87,1.68,5.91,2.52,9.12,2.52s6.34-.82,9.18-2.46c2.84-1.64,5.13-4.05,6.88-7.22,1.75-3.17,2.63-6.88,2.63-11.14s-.88-7.95-2.63-11.08Z"/>
    </g>
  </g>
</svg>