<?xml version="1.0" encoding="UTF-8"?>
<svg id="Layer_2" data-name="Layer 2" xmlns="http://www.w3.org/2000/svg" viewBox="0 0 800 800">
  <defs>
    <style>
      .cls-1 {
        fill: #6382b5;
      }

      .cls-2 {
        fill: #a0adcf;
      }
    </style>
  </defs>
  <path class="cls-1" d="M371.7,603.27c-11.18-4.32-19.45-17.15-21.56-32.68l-2.76-20.34c-.68-5.03,1.38-10.05,5.46-13.08,31.06-23.09,53.63-60.58,60.94-104.53.43-2.59,2.73-4.48,5.4-4.3.39.03.79.04,1.19.04,12.5,0,22.64-11.95,22.64-26.68s-10.14-26.68-22.64-26.68c-.4,0-.79.01-1.19.04-2.67.17-4.97-1.71-5.4-4.3-12.23-73.61-67.24-129.15-133.28-129.15s-121.07,55.57-133.29,129.2c-.46,2.75-3,4.55-5.83,4.29-.58-.05-1.16-.08-1.75-.08-12.5,0-22.64,11.95-22.64,26.68s10.14,26.68,22.64,26.68c.59,0,1.17-.03,1.75-.08,2.83-.26,5.37,1.54,5.83,4.29,7.15,43.09,28.97,80,59.07,103.2,3.95,3.05,5.94,7.99,5.27,12.93l-2.97,21.87c-2.11,15.52-10.38,28.36-21.56,32.68-77.38,30.15-142.65,99.22-183.59,190.68-1.37,3.06.91,6.53,4.26,6.53h271.68s271.68,0,271.68,0c3.35,0,5.63-3.47,4.26-6.53-40.94-91.46-106.21-160.52-183.6-190.68Z"/>
  <g>
    <path class="cls-1" d="M404.92,130.36v-39.63h-22.36c-1.88-7.27-4.77-14.13-8.51-20.44l15.83-15.79-28.08-28.02-15.83,15.79c-6.32-3.73-13.19-6.62-20.48-8.49V11.47h-39.72v22.31c-7.29,1.87-14.16,4.76-20.48,8.49l-15.83-15.79-28.08,28.02,15.83,15.79c-3.73,6.31-6.63,13.16-8.51,20.44h-22.36v39.63h22.36c1.88,7.27,4.77,14.13,8.51,20.44l-15.83,15.79,28.08,28.02,15.83-15.79c6.32,3.73,13.19,6.62,20.48,8.49v22.31h39.72v-22.31c7.29-1.87,14.16-4.76,20.48-8.49l15.83,15.79,28.08-28.02-15.83-15.79c3.73-6.31,6.63-13.16,8.51-20.44h22.36ZM305.63,160.09c-27.42,0-49.64-22.18-49.64-49.54s22.23-49.54,49.64-49.54,49.64,22.18,49.64,49.54-22.23,49.54-49.64,49.54Z"/>
    <path class="cls-1" d="M798.82,130.36v-39.63h-22.36c-1.88-7.27-4.77-14.13-8.51-20.44l15.83-15.79-28.08-28.02-15.83,15.79c-6.32-3.73-13.19-6.62-20.48-8.49V11.47h-39.72v22.31c-7.29,1.87-14.16,4.76-20.48,8.49l-15.83-15.79-28.08,28.02,15.83,15.79c-3.73,6.31-6.63,13.16-8.51,20.44h-22.36v39.63h22.36c1.88,7.27,4.77,14.13,8.51,20.44l-15.83,15.79,28.08,28.02,15.83-15.79c6.32,3.73,13.19,6.62,20.48,8.49v22.31h39.72v-22.31c7.29-1.87,14.16-4.76,20.48-8.49l15.83,15.79,28.08-28.02-15.83-15.79c3.73-6.31,6.63-13.16,8.51-20.44h22.36ZM699.53,160.09c-27.42,0-49.64-22.18-49.64-49.54s22.23-49.54,49.64-49.54,49.64,22.18,49.64,49.54-22.23,49.54-49.64,49.54Z"/>
    <g>
      <ellipse class="cls-2" cx="587.28" cy="713.46" rx="16.41" ry="16.38"/>
      <ellipse class="cls-2" cx="651.11" cy="713.46" rx="16.41" ry="16.38"/>
      <path class="cls-2" d="M641.79,538.69h-276.8c-37.31,0-67.67-30.29-67.67-67.53v-145.19c0-37.23,30.36-67.53,67.67-67.53h276.8c37.31,0,67.67,30.29,67.67,67.53v145.19c0,37.23-30.36,67.53-67.67,67.53ZM364.99,276.65c-27.26,0-49.43,22.13-49.43,49.33v145.19c0,27.2,22.18,49.33,49.43,49.33h276.8c27.26,0,49.43-22.13,49.43-49.33v-145.19c0-27.2-22.18-49.33-49.43-49.33h-276.8Z"/>
      <path class="cls-2" d="M702.17,800.48h0c-5.04,0-9.12-4.07-9.12-9.1v-114.15c0-27.24-22.13-49.33-49.43-49.33h-276.8c-27.3,0-49.43,22.08-49.43,49.33v114.15c0,5.03-4.08,9.1-9.12,9.1h0c-5.04,0-9.12-4.07-9.12-9.1v-114.15c0-37.29,30.3-67.53,67.67-67.53h276.8c37.37,0,67.67,30.23,67.67,67.53v114.15c0,5.03-4.08,9.1-9.12,9.1Z"/>
      <path class="cls-2" d="M403.09,438.6c-23.13,0-41.94-18.78-41.94-41.85s18.82-41.85,41.94-41.85,41.94,18.78,41.94,41.85-18.82,41.85-41.94,41.85ZM403.09,373.09c-13.07,0-23.71,10.61-23.71,23.66s10.64,23.66,23.71,23.66,23.71-10.61,23.71-23.66-10.64-23.66-23.71-23.66Z"/>
      <path class="cls-2" d="M600.04,438.6c-23.13,0-41.94-18.78-41.94-41.85s18.82-41.85,41.94-41.85,41.94,18.78,41.94,41.85-18.82,41.85-41.94,41.85ZM600.04,373.09c-13.07,0-23.71,10.61-23.71,23.66s10.64,23.66,23.71,23.66,23.71-10.61,23.71-23.66-10.64-23.66-23.71-23.66Z"/>
      <path class="cls-2" d="M531.09,462.26h-55.39c-5.04,0-9.12-4.07-9.12-9.1s4.08-9.1,9.12-9.1h55.39c5.04,0,9.12,4.07,9.12,9.1s-4.08,9.1-9.12,9.1Z"/>
      <g>
        <path class="cls-2" d="M274.53,456.8c-5.04,0-9.12-4.07-9.12-9.1v-98.27c0-5.03,4.08-9.1,9.12-9.1s9.12,4.07,9.12,9.1v98.27c0,5.03-4.08,9.1-9.12,9.1Z"/>
        <path class="cls-2" d="M734.08,456.8c-5.04,0-9.12-4.07-9.12-9.1v-98.27c0-5.03,4.08-9.1,9.12-9.1s9.12,4.07,9.12,9.1v98.27c0,5.03-4.08,9.1-9.12,9.1Z"/>
        <path class="cls-2" d="M759.61,435.31c-5.04,0-9.12-4.07-9.12-9.1v-55.27c0-5.03,4.08-9.1,9.12-9.1s9.12,4.07,9.12,9.1v55.27c0,5.03-4.08,9.1-9.12,9.1Z"/>
        <path class="cls-2" d="M247.17,435.31c-5.04,0-9.12-4.07-9.12-9.1v-55.27c0-5.03,4.08-9.1,9.12-9.1s9.12,4.07,9.12,9.1v55.27c0,5.03-4.08,9.1-9.12,9.1Z"/>
      </g>
      <g>
        <path class="cls-2" d="M554.45,569.62h-98.48c-5.04,0-9.12-4.07-9.12-9.1s4.08-9.1,9.12-9.1h98.48c5.04,0,9.12,4.07,9.12,9.1s-4.08,9.1-9.12,9.1Z"/>
        <path class="cls-2" d="M532.91,595.1h-55.39c-5.04,0-9.12-4.07-9.12-9.1s4.08-9.1,9.12-9.1h55.39c5.04,0,9.12,4.07,9.12,9.1s-4.08,9.1-9.12,9.1Z"/>
      </g>
      <ellipse class="cls-2" cx="403.09" cy="396.75" rx="9.25" ry="9.23"/>
      <ellipse class="cls-2" cx="600.04" cy="396.75" rx="9.25" ry="9.23"/>
      <path class="cls-2" d="M404.92,276.65c-2.77,0-5.51-1.25-7.3-3.64l-98.48-131.02c-3.02-4.02-2.2-9.72,1.82-12.74,4.02-3.01,9.74-2.2,12.77,1.82l98.48,131.02c3.02,4.02,2.2,9.72-1.82,12.74-1.64,1.23-3.56,1.82-5.46,1.82Z"/>
      <path class="cls-2" d="M601.86,276.65c-1.9,0-3.82-.59-5.46-1.82-4.03-3.01-4.84-8.72-1.82-12.74l98.48-131.02c3.02-4.02,8.73-4.83,12.77-1.82,4.03,3.01,4.84,8.72,1.82,12.74l-98.48,131.02c-1.79,2.38-4.53,3.64-7.3,3.64Z"/>
    </g>
  </g>
</svg>