<?xml version="1.0" encoding="utf-8"?>
<!-- Generator: Adobe Illustrator 28.1.0, SVG Export Plug-In . SVG Version: 6.00 Build 0)  -->
<svg version="1.1" id="Layer_1" xmlns="http://www.w3.org/2000/svg" xmlns:xlink="http://www.w3.org/1999/xlink" x="0px" y="0px"
	 viewBox="0 0 800 800" style="enable-background:new 0 0 800 800;" xml:space="preserve">
<style type="text/css">
	.st0{fill:#8093BF;}
	.st1{fill:#23324E;}
</style>
<g>
	<g>
		<g>
			<g>
				<path class="st0" d="M367.57,601.61c-11.14-4.32-19.39-17.17-21.49-32.71l-2.76-20.36c-0.68-5.03,1.38-10.06,5.44-13.09
					c30.96-23.11,53.46-60.63,60.75-104.63c0.43-2.59,2.72-4.48,5.38-4.31c0.39,0.03,0.78,0.04,1.18,0.04
					c12.47,0,22.57-11.96,22.57-26.71c0-14.75-10.1-26.71-22.57-26.71c-0.4,0-0.79,0.01-1.18,0.04c-2.66,0.18-4.95-1.71-5.38-4.31
					c-12.2-73.67-67.04-129.27-132.87-129.27c-65.85,0-120.7,55.62-132.88,129.32c-0.46,2.76-2.99,4.55-5.81,4.3
					c-0.58-0.05-1.16-0.08-1.74-0.08c-12.47,0-22.57,11.96-22.57,26.71c0,14.75,10.1,26.71,22.57,26.71c0.59,0,1.17-0.03,1.74-0.08
					c2.82-0.26,5.36,1.54,5.81,4.3c7.13,43.13,28.88,80.07,58.89,103.29c3.94,3.05,5.92,7.99,5.25,12.94l-2.96,21.89
					c-2.1,15.54-10.35,28.38-21.49,32.71C106.3,631.79,41.23,700.92,0.42,792.46c-1.37,3.06,0.9,6.54,4.25,6.54h270.84h270.84
					c3.34,0,5.61-3.48,4.25-6.54C509.78,700.92,444.71,631.79,367.57,601.61z"/>
			</g>
		</g>
	</g>
	<g>
		<g>
			<g>
				<path class="st0" d="M400.33,121.57V81.39h-22.67c-1.9-7.37-4.84-14.33-8.63-20.72l16.05-16.01l-28.47-28.41l-16.05,16.01
					c-6.41-3.78-13.38-6.71-20.76-8.61V1.03h-40.27v22.62c-7.39,1.9-14.36,4.83-20.76,8.61l-16.05-16.01l-28.47,28.41l16.05,16.01
					c-3.79,6.39-6.72,13.35-8.63,20.72h-22.67v40.18h22.67c1.9,7.37,4.84,14.33,8.63,20.72l-16.05,16.01l28.47,28.41l16.05-16.01
					c6.41,3.78,13.38,6.71,20.76,8.61v22.62h40.27v-22.62c7.39-1.9,14.36-4.83,20.76-8.61l16.05,16.01l28.47-28.41l-16.05-16.01
					c3.79-6.39,6.72-13.35,8.63-20.72H400.33z M299.66,151.71c-27.8,0-50.34-22.49-50.34-50.23c0-27.74,22.54-50.23,50.34-50.23
					c27.8,0,50.34,22.49,50.34,50.23C350,129.22,327.46,151.71,299.66,151.71z"/>
			</g>
		</g>
		<g>
			<g>
				<path class="st0" d="M799.73,121.57V81.39h-22.67c-1.9-7.37-4.84-14.33-8.63-20.72l16.05-16.01L756,16.24l-16.05,16.01
					c-6.41-3.78-13.38-6.71-20.76-8.61V1.03h-40.27v22.62c-7.39,1.9-14.36,4.83-20.76,8.61l-16.05-16.01l-28.47,28.41l16.05,16.01
					c-3.79,6.39-6.72,13.35-8.63,20.72h-22.67v40.18h22.67c1.9,7.37,4.84,14.33,8.63,20.72l-16.05,16.01l28.47,28.41l16.05-16.01
					c6.41,3.78,13.38,6.71,20.76,8.61v22.62h40.27v-22.62c7.39-1.9,14.36-4.83,20.76-8.61L756,186.72l28.47-28.41l-16.05-16.01
					c3.79-6.39,6.72-13.35,8.63-20.72H799.73z M699.05,151.71c-27.8,0-50.34-22.49-50.34-50.23c0-27.74,22.54-50.23,50.34-50.23
					c27.8,0,50.34,22.49,50.34,50.23C749.39,129.22,726.85,151.71,699.05,151.71z"/>
			</g>
		</g>
		<g>
			<g>
				<ellipse class="st0" cx="585.24" cy="712.8" rx="16.64" ry="16.61"/>
			</g>
			<g>
				<ellipse class="st1" cx="649.95" cy="712.8" rx="16.64" ry="16.61"/>
			</g>
			<g>
				<path class="st1" d="M640.51,535.59H359.85c-37.83,0-68.61-30.71-68.61-68.47V319.91c0-37.75,30.78-68.47,68.61-68.47h280.66
					c37.83,0,68.61,30.71,68.61,68.47v147.21C709.12,504.87,678.34,535.59,640.51,535.59z M359.85,269.9
					c-27.64,0-50.12,22.44-50.12,50.02v147.21c0,27.58,22.48,50.02,50.12,50.02h280.66c27.64,0,50.12-22.44,50.12-50.02V319.91
					c0-27.58-22.48-50.02-50.12-50.02H359.85z"/>
			</g>
			<g>
				<path class="st1" d="M701.73,801.03L701.73,801.03c-5.11,0-9.25-4.13-9.25-9.23V676.06c0-27.62-22.44-50.02-50.12-50.02H361.7
					c-27.68,0-50.12,22.39-50.12,50.02V791.8c0,5.1-4.14,9.23-9.25,9.23h0c-5.11,0-9.25-4.13-9.25-9.23V676.06
					c0-37.81,30.72-68.47,68.61-68.47h280.66c37.89,0,68.61,30.65,68.61,68.47V791.8C710.97,796.9,706.83,801.03,701.73,801.03z"/>
			</g>
			<g>
				<path class="st1" d="M398.48,434.11c-23.45,0-42.53-19.04-42.53-42.44c0-23.4,19.08-42.44,42.53-42.44s42.53,19.04,42.53,42.44
					C441.01,415.07,421.93,434.11,398.48,434.11z M398.48,367.69c-13.25,0-24.04,10.76-24.04,23.99s10.78,23.99,24.04,23.99
					s24.04-10.76,24.04-23.99S411.74,367.69,398.48,367.69z"/>
			</g>
			<g>
				<path class="st1" d="M598.18,434.11c-23.45,0-42.53-19.04-42.53-42.44c0-23.4,19.08-42.44,42.53-42.44
					c23.45,0,42.53,19.04,42.53,42.44C640.71,415.07,621.63,434.11,598.18,434.11z M598.18,367.69c-13.25,0-24.04,10.76-24.04,23.99
					s10.78,23.99,24.04,23.99s24.04-10.76,24.04-23.99S611.43,367.69,598.18,367.69z"/>
			</g>
			<g>
				<path class="st1" d="M528.26,458.1H472.1c-5.11,0-9.25-4.13-9.25-9.23c0-5.1,4.14-9.23,9.25-9.23h56.16
					c5.11,0,9.25,4.13,9.25,9.23C537.51,453.97,533.37,458.1,528.26,458.1z"/>
			</g>
			<g>
				<g>
					<path class="st1" d="M268.13,452.56c-5.11,0-9.25-4.13-9.25-9.23V343.7c0-5.1,4.14-9.23,9.25-9.23c5.11,0,9.25,4.13,9.25,9.23
						v99.63C277.37,448.43,273.23,452.56,268.13,452.56z"/>
				</g>
				<g>
					<path class="st1" d="M734.09,452.56c-5.11,0-9.25-4.13-9.25-9.23V343.7c0-5.1,4.14-9.23,9.25-9.23s9.25,4.13,9.25,9.23v99.63
						C743.33,448.43,739.19,452.56,734.09,452.56z"/>
				</g>
				<g>
					<path class="st1" d="M759.97,430.76c-5.11,0-9.25-4.13-9.25-9.23V365.5c0-5.1,4.14-9.23,9.25-9.23s9.25,4.13,9.25,9.23v56.04
						C769.22,426.64,765.08,430.76,759.97,430.76z"/>
				</g>
				<g>
					<path class="st1" d="M240.39,430.76c-5.11,0-9.25-4.13-9.25-9.23V365.5c0-5.1,4.14-9.23,9.25-9.23c5.11,0,9.25,4.13,9.25,9.23
						v56.04C249.64,426.64,245.5,430.76,240.39,430.76z"/>
				</g>
			</g>
			<g>
				<g>
					<path class="st1" d="M551.96,566.95h-99.85c-5.11,0-9.25-4.13-9.25-9.23s4.14-9.23,9.25-9.23h99.85c5.11,0,9.25,4.13,9.25,9.23
						S557.06,566.95,551.96,566.95z"/>
				</g>
				<g>
					<path class="st1" d="M530.11,592.79h-56.16c-5.11,0-9.25-4.13-9.25-9.23s4.14-9.23,9.25-9.23h56.16c5.11,0,9.25,4.13,9.25,9.23
						S535.22,592.79,530.11,592.79z"/>
				</g>
			</g>
			<g>
				<ellipse class="st1" cx="398.48" cy="391.67" rx="16.64" ry="16.61"/>
			</g>
			<g>
				<ellipse class="st1" cx="598.18" cy="391.67" rx="16.64" ry="16.61"/>
			</g>
			<g>
				<path class="st1" d="M400.34,269.9c-2.81,0-5.59-1.27-7.4-3.69l-99.85-132.85c-3.06-4.08-2.24-9.86,1.85-12.92
					c4.08-3.06,9.88-2.23,12.94,1.85l99.85,132.85c3.06,4.08,2.24,9.86-1.85,12.92C404.22,269.3,402.27,269.9,400.34,269.9z"/>
			</g>
			<g>
				<path class="st1" d="M600.02,269.9c-1.93,0-3.88-0.6-5.54-1.85c-4.08-3.06-4.91-8.84-1.85-12.92l99.85-132.85
					c3.07-4.08,8.86-4.9,12.94-1.85c4.08,3.06,4.91,8.84,1.85,12.92l-99.85,132.85C605.61,268.62,602.83,269.9,600.02,269.9z"/>
			</g>
		</g>
	</g>
</g>
</svg>
