<?xml version="1.0" encoding="UTF-8"?>
<svg id="Layer_2" data-name="Layer 2" xmlns="http://www.w3.org/2000/svg" viewBox="0 0 800.25 800.25">
  <defs>
    <style>
      .cls-1 {
        fill: #6382b5;
      }

      .cls-2 {
        fill: #a0adcf;
      }
    </style>
  </defs>
  <path class="cls-1" d="M609.59,509.33l-2.33,2.33-2.33-2.33c-118.18-118.18-264.64,28.28-146.46,146.46l143.45,143.45c1.67,1.67,4.37,1.69,6.07.05l148.07-143.49c118.18-118.18-28.28-264.64-146.46-146.46Z"/>
  <path class="cls-2" d="M53.81,799.26c-2.1,0-4.22-.6-6.1-1.85-5.09-3.39-6.49-10.3-3.11-15.42,58.13-88.27,132.95-152.21,216.37-184.93,11.95-4.66,21.27-19.56,23.77-37.98l4.92-36.54c-47.22-34.73-80.4-90.57-91.77-154.67-.15,0-.3,0-.45,0-23.89,0-43.32-22.15-43.32-49.37s19.43-49.4,43.32-49.4c.15,0,.3,0,.45,0,19.65-111,103.43-191.24,200.28-191.24s180.64,80.23,200.29,191.25c23.45.58,42.36,22.51,42.36,49.39s-18.91,48.77-42.36,49.35c-11.6,65.54-45.85,122.16-94.71,156.79l4.64,34.45c2.5,18.41,11.82,33.32,23.75,37.96,83.44,32.72,158.26,96.67,216.39,184.93,3.37,5.12,1.98,12.03-3.11,15.42-5.09,3.4-11.96,2-15.33-3.13-55.59-84.42-126.81-145.45-205.96-176.48-19.59-7.63-34.02-28.98-37.66-55.7l-6.51-48.26,5.85-3.84c47.6-31.3,80.91-85.61,91.37-148.99,1.6-9.46,9.92-16.06,19.36-15.44.32.02.64.05.95.05,11.69,0,21.2-12.16,21.2-27.11s-10.11-27.95-22.14-27.1c-9.46.63-17.77-5.97-19.36-15.4-16.81-101.94-92.1-175.89-179.02-175.89s-162.2,73.97-179.01,175.89c-1.62,9.72-10.32,16.37-20.22,15.41-.47-.04-.97-.06-1.5-.06-11.69,0-21.2,12.18-21.2,27.15,0,15.62,10.51,28.1,22.75,27.04,9.86-.91,18.54,5.71,20.16,15.39,10.25,62.05,42.54,115.69,88.6,147.2l5.66,3.87-6.75,50.07c-3.63,26.73-18.07,48.08-37.68,55.73-79.12,31.03-150.34,92.05-205.94,176.47-2.13,3.23-5.65,4.98-9.23,4.98ZM200.95,367.7s-.02,0-.03,0c0,0,.02,0,.03,0ZM200.87,269.24s.02,0,.03,0c0,0-.02,0-.03,0Z"/>
  <path class="cls-2" d="M387.71,800.13h-184.57c-5.16,0-9.35-4.19-9.35-9.35s4.19-9.35,9.35-9.35h184.57c5.16,0,9.35,4.19,9.35,9.35s-4.19,9.35-9.35,9.35Z"/>
</svg>