<?xml version="1.0" encoding="UTF-8"?>
<svg id="Layer_2" data-name="Layer 2" xmlns="http://www.w3.org/2000/svg" viewBox="0 0 800 800">
  <defs>
    <style>
      .cls-1 {
        fill: #6382b5;
      }

      .cls-2 {
        fill: #a0adcf;
      }
    </style>
  </defs>
  <path class="cls-1" d="M291.23,586.71c-8.92-3.45-15.52-13.69-17.2-26.08l-2.21-16.23c-.55-4.01,1.1-8.02,4.36-10.44,24.78-18.43,42.8-48.34,48.63-83.42.34-2.07,2.18-3.57,4.31-3.43.31.02.63.03.95.03,9.98,0,18.07-9.53,18.07-21.29s-8.09-21.29-18.07-21.29c-.32,0-.63.01-.95.03-2.13.14-3.97-1.36-4.31-3.43-9.76-58.74-53.66-103.07-106.37-103.07s-96.63,44.35-106.38,103.11c-.36,2.2-2.4,3.63-4.65,3.43-.46-.04-.93-.06-1.4-.06-9.98,0-18.07,9.53-18.07,21.29s8.09,21.29,18.07,21.29c.47,0,.94-.02,1.4-.06,2.26-.2,4.29,1.23,4.65,3.43,5.71,34.39,23.12,63.84,47.14,82.36,3.15,2.43,4.74,6.37,4.2,10.32l-2.37,17.45c-1.68,12.39-8.28,22.63-17.2,26.08-58.61,22.84-108.51,73.64-141.37,141.14-3.65,7.5,1.7,16.25,10.04,16.25h410.05c8.34,0,13.69-8.74,10.04-16.25-32.86-67.5-82.76-118.31-141.37-141.14Z"/>
  <path class="cls-2" d="M797.58,782.59c-9.94-15.05-20.32-29.44-31.22-43.01-6.16-7.79-12.5-15.28-19.02-22.55-48.13-53.99-103.94-94.15-164.31-117.81-11.83-4.6-21.06-19.39-23.55-37.64l-4.6-34.15c48.43-34.34,82.4-90.48,93.93-155.49,23.25-.56,41.98-22.29,41.98-48.95s-18.73-48.39-41.98-48.95c-1-5.71-2.19-11.35-3.56-16.91-1.71-7.08-3.71-13.98-5.93-20.77-29.85-90.11-104.42-151.96-189.12-151.96s-159.3,61.85-189.12,151.96c-2.22,6.79-4.23,13.68-5.9,20.77-1.37,5.53-2.56,11.16-3.56,16.87h-.44c-23.7,0-42.98,21.99-42.98,48.99s19.28,48.99,42.98,48.99c.15,0,.3,0,.44-.04,11.27,63.56,44.16,118.96,91,153.37l-4.89,36.23c-2.48,18.28-11.72,33.08-23.58,37.68-82.69,32.45-156.89,95.86-214.52,183.37-3.34,5.08-1.97,11.94,3.08,15.28,1.85,1.26,3.97,1.85,6.04,1.85,3.56,0,7.05-1.74,9.16-4.93,55.1-83.73,125.75-144.25,204.21-174.99,19.43-7.6,33.74-28.74,37.34-55.25l6.67-49.65-5.6-3.86c-45.65-31.22-77.69-84.44-87.85-145.95-1.59-9.6-10.23-16.17-19.99-15.24-12.13,1.04-22.55-11.35-22.55-26.85s9.42-26.92,21.03-26.92c.52,0,1,.04,1.48.07,9.79.96,18.43-5.64,20.02-15.28,1.33-8.08,3.04-16.02,5.12-23.73,1.89-7.12,4.08-14.02,6.53-20.77,28.29-77.39,92.93-129.9,165.87-129.9s137.58,52.51,165.87,129.9c2.45,6.75,4.64,13.68,6.53,20.77,2.08,7.71,3.78,15.65,5.12,23.73,1.56,9.34,9.83,15.91,19.21,15.28,11.94-.85,21.95,11.64,21.95,26.85s-9.46,26.88-21.03,26.88c-.3,0-.63,0-.96-.04-9.34-.63-17.61,5.93-19.17,15.32-10.38,62.85-43.42,116.7-90.63,147.73l-5.78,3.82,6.45,47.84c3.6,26.51,17.91,47.65,37.34,55.25,57.26,22.43,110.36,60.7,156.23,112.32,5.97,6.64,11.75,13.53,17.43,20.62,10.64,13.27,20.84,27.29,30.56,42.05,3.34,5.08,10.16,6.45,15.2,3.08,5.04-3.34,6.42-10.2,3.08-15.28Z"/>
  <path class="cls-2" d="M22.12,236.37C9.93,236.37.06,246.25.06,258.43v472.57c0,12.05,9.79,21.88,21.88,21.88h72.68c5.07,0,9.83-3.32,10.84-8.29.74-3.66-.53-7.09-2.83-9.44-1.89-1.89-4.49-3.04-7.34-3.04H21.93c-.63,0-1.11-.52-1.11-1.11v-472.57c0-.72.58-1.3,1.3-1.3h193.61c5.73,0,10.38-4.65,10.38-10.38h0c0-5.73-4.65-10.38-10.38-10.38H22.12Z"/>
  <path class="cls-2" d="M746.22,236.37h-53.62c-5.73,0-10.38,4.65-10.38,10.38h0c0,5.73,4.65,10.38,10.38,10.38h53.62c.59,0,1.11.48,1.11,1.11v472.76c0,.61-.5,1.11-1.11,1.11H247.26c-6.07,0-11.38,4.98-11.01,11.04.16,2.6,1.27,4.94,3.02,6.69,1.89,1.89,4.49,3.04,7.34,3.04h499.61c.85,0,1.71-.04,2.52-.15,7.97-.93,14.61-6.08,17.61-13.16,1.11-2.63,1.74-5.53,1.74-8.57v-472.76c0-12.08-9.8-21.88-21.88-21.88Z"/>
  <circle class="cls-2" cx="385.99" cy="689.5" r="17.28"/>
  <path class="cls-2" d="M487.76,799.95h-207.37c-5.3,0-9.6-4.3-9.6-9.6s4.3-9.6,9.6-9.6h207.37c5.3,0,9.6,4.3,9.6,9.6s-4.3,9.6-9.6,9.6Z"/>
</svg>