<?xml version="1.0" standalone="no"?>
<!DOCTYPE svg PUBLIC "-//W3C//DTD SVG 20010904//EN"
 "http://www.w3.org/TR/2001/REC-SVG-20010904/DTD/svg10.dtd">
<svg version="1.0" xmlns="http://www.w3.org/2000/svg"
 width="260.000000pt" height="260.000000pt" viewBox="0 0 260.000000 260.000000"
 preserveAspectRatio="xMidYMid meet">
<metadata>
Created by potrace 1.14, written by Peter Selinger 2001-2017
</metadata>
<g transform="translate(0.000000,260.000000) scale(0.100000,-0.100000)"
fill="#000000" stroke="none">
<path d="M771 2534 l-26 -22 0 -526 0 -526 23 -22 23 -23 525 0 526 0 23 27
23 26 0 504 c0 304 -3 516 -9 535 -8 23 -19 34 -42 42 -19 5 -235 9 -536 9
l-504 -1 -26 -23z"/>
<path d="M83 1182 c-13 -2 -32 -15 -43 -29 -19 -25 -20 -39 -20 -545 l0 -519
25 -24 c18 -19 35 -25 67 -26 24 0 258 0 522 -1 l478 0 26 26 26 25 0 512 c1
555 0 563 -52 576 -26 6 -987 11 -1029 5z"/>
<path d="M1505 1180 c-15 -3 -36 -16 -47 -30 -18 -25 -19 -50 -18 -515 0 -270
2 -505 3 -524 4 -45 37 -71 91 -72 22 0 256 -1 520 -1 l478 0 26 25 25 26 0
515 c0 564 1 559 -57 572 -35 8 -977 12 -1021 4z"/>
</g>
</svg>
